<?xml version="1.0" encoding="UTF-8"?>
<svg xmlns="http://www.w3.org/2000/svg" version="1.1" width="500" height="500" viewBox="0 0 500 500"><rect x="0" y="0" width="500" height="500" fill="#ffffff"/><g transform="scale(17.241)"><g transform="translate(0,0)"><path fill-rule="evenodd" d="M9 0L9 1L8 1L8 2L9 2L9 3L8 3L8 4L10 4L10 7L11 7L11 4L12 4L12 5L13 5L13 6L12 6L12 9L13 9L13 8L14 8L14 9L15 9L15 10L17 10L17 11L16 11L16 12L17 12L17 15L18 15L18 14L21 14L21 15L22 15L22 14L24 14L24 15L23 15L23 16L24 16L24 15L27 15L27 16L25 16L25 17L18 17L18 16L14 16L14 15L16 15L16 13L12 13L12 11L13 11L13 10L11 10L11 11L10 11L10 9L11 9L11 8L6 8L6 9L5 9L5 8L0 8L0 10L1 10L1 11L0 11L0 13L1 13L1 14L3 14L3 12L4 12L4 13L5 13L5 14L6 14L6 15L3 15L3 17L4 17L4 16L5 16L5 18L4 18L4 19L5 19L5 20L4 20L4 21L8 21L8 23L9 23L9 24L8 24L8 29L9 29L9 24L10 24L10 23L11 23L11 21L12 21L12 22L13 22L13 23L12 23L12 25L13 25L13 24L14 24L14 25L18 25L18 24L16 24L16 23L18 23L18 21L19 21L19 20L16 20L16 18L15 18L15 19L14 19L14 20L15 20L15 21L12 21L12 19L13 19L13 18L11 18L11 17L10 17L10 16L8 16L8 17L9 17L9 18L8 18L8 20L6 20L6 19L7 19L7 18L6 18L6 17L7 17L7 16L6 16L6 15L7 15L7 14L6 14L6 13L7 13L7 12L6 12L6 11L7 11L7 10L9 10L9 11L8 11L8 12L9 12L9 14L8 14L8 15L11 15L11 13L12 13L12 14L13 14L13 15L12 15L12 17L13 17L13 16L14 16L14 17L17 17L17 18L20 18L20 19L21 19L21 20L20 20L20 22L19 22L19 24L20 24L20 25L23 25L23 26L19 26L19 27L18 27L18 28L17 28L17 26L15 26L15 27L14 27L14 28L16 28L16 29L20 29L20 28L22 28L22 27L25 27L25 28L24 28L24 29L27 29L27 28L28 28L28 26L29 26L29 25L28 25L28 24L26 24L26 25L25 25L25 23L27 23L27 22L29 22L29 20L28 20L28 19L27 19L27 16L28 16L28 15L27 15L27 14L25 14L25 13L27 13L27 12L28 12L28 11L27 11L27 12L26 12L26 11L25 11L25 9L26 9L26 8L25 8L25 9L24 9L24 8L23 8L23 9L22 9L22 8L21 8L21 6L20 6L20 8L19 8L19 6L18 6L18 5L21 5L21 4L20 4L20 3L21 3L21 2L20 2L20 3L17 3L17 2L16 2L16 4L12 4L12 2L13 2L13 1L11 1L11 2L10 2L10 0ZM15 0L15 1L17 1L17 0ZM18 0L18 2L19 2L19 1L21 1L21 0ZM14 2L14 3L15 3L15 2ZM10 3L10 4L11 4L11 3ZM16 4L16 5L17 5L17 4ZM8 5L8 7L9 7L9 5ZM13 6L13 7L14 7L14 8L15 8L15 7L16 7L16 9L17 9L17 10L18 10L18 9L19 9L19 8L18 8L18 6L17 6L17 7L16 7L16 6L15 6L15 7L14 7L14 6ZM17 8L17 9L18 9L18 8ZM20 8L20 9L21 9L21 11L22 11L22 12L20 12L20 10L19 10L19 11L17 11L17 12L18 12L18 13L25 13L25 12L23 12L23 10L22 10L22 9L21 9L21 8ZM27 8L27 9L28 9L28 10L29 10L29 9L28 9L28 8ZM2 9L2 12L3 12L3 11L6 11L6 10L7 10L7 9L6 9L6 10L3 10L3 9ZM14 11L14 12L15 12L15 11ZM10 12L10 13L11 13L11 12ZM28 13L28 14L29 14L29 13ZM0 15L0 21L1 21L1 18L2 18L2 17L1 17L1 16L2 16L2 15ZM19 15L19 16L20 16L20 15ZM25 17L25 21L26 21L26 20L27 20L27 19L26 19L26 17ZM28 17L28 18L29 18L29 17ZM5 18L5 19L6 19L6 18ZM9 18L9 19L10 19L10 20L11 20L11 19L10 19L10 18ZM21 18L21 19L23 19L23 18ZM2 19L2 21L3 21L3 19ZM8 20L8 21L9 21L9 22L10 22L10 21L9 21L9 20ZM15 21L15 22L17 22L17 21ZM21 21L21 24L24 24L24 21ZM22 22L22 23L23 23L23 22ZM14 23L14 24L15 24L15 23ZM10 25L10 28L11 28L11 29L12 29L12 27L13 27L13 26L11 26L11 25ZM24 25L24 26L25 26L25 25ZM19 27L19 28L20 28L20 27ZM26 27L26 28L27 28L27 27ZM0 0L0 7L7 7L7 0ZM1 1L1 6L6 6L6 1ZM2 2L2 5L5 5L5 2ZM22 0L22 7L29 7L29 0ZM23 1L23 6L28 6L28 1ZM24 2L24 5L27 5L27 2ZM0 22L0 29L7 29L7 22ZM1 23L1 28L6 28L6 23ZM2 24L2 27L5 27L5 24Z" fill="#000000"/></g></g></svg>
