<?xml version="1.0" encoding="UTF-8"?>
<svg xmlns="http://www.w3.org/2000/svg" version="1.1" width="500" height="500" viewBox="0 0 500 500"><rect x="0" y="0" width="500" height="500" fill="#ffffff"/><g transform="scale(17.241)"><g transform="translate(0,0)"><path fill-rule="evenodd" d="M8 0L8 1L9 1L9 2L8 2L8 5L9 5L9 4L11 4L11 5L10 5L10 10L9 10L9 8L8 8L8 10L6 10L6 9L7 9L7 8L6 8L6 9L4 9L4 8L0 8L0 13L1 13L1 12L2 12L2 14L4 14L4 12L3 12L3 11L4 11L4 10L5 10L5 17L3 17L3 16L4 16L4 15L2 15L2 16L1 16L1 17L3 17L3 18L2 18L2 19L3 19L3 20L4 20L4 21L7 21L7 20L10 20L10 18L11 18L11 16L12 16L12 17L13 17L13 18L15 18L15 19L14 19L14 20L15 20L15 19L16 19L16 22L18 22L18 23L20 23L20 26L22 26L22 25L24 25L24 26L23 26L23 28L24 28L24 26L26 26L26 27L25 27L25 29L26 29L26 27L27 27L27 29L28 29L28 27L29 27L29 24L26 24L26 22L27 22L27 23L28 23L28 22L29 22L29 21L27 21L27 18L28 18L28 15L29 15L29 13L27 13L27 12L25 12L25 9L27 9L27 8L24 8L24 9L22 9L22 8L21 8L21 9L19 9L19 6L20 6L20 7L21 7L21 6L20 6L20 4L19 4L19 5L18 5L18 3L17 3L17 5L18 5L18 7L17 7L17 6L16 6L16 10L17 10L17 11L16 11L16 12L15 12L15 11L13 11L13 10L15 10L15 9L13 9L13 6L14 6L14 8L15 8L15 5L16 5L16 4L15 4L15 3L16 3L16 2L17 2L17 1L16 1L16 2L14 2L14 1L15 1L15 0L12 0L12 1L11 1L11 0L10 0L10 1L9 1L9 0ZM18 0L18 1L21 1L21 0ZM11 2L11 4L12 4L12 3L13 3L13 2ZM19 2L19 3L20 3L20 2ZM13 4L13 5L12 5L12 6L11 6L11 8L12 8L12 6L13 6L13 5L15 5L15 4ZM8 6L8 7L9 7L9 6ZM28 8L28 10L26 10L26 11L28 11L28 12L29 12L29 11L28 11L28 10L29 10L29 8ZM1 9L1 11L2 11L2 9ZM3 9L3 10L4 10L4 9ZM11 9L11 10L12 10L12 9ZM21 9L21 10L19 10L19 11L17 11L17 12L18 12L18 13L17 13L17 16L16 16L16 14L15 14L15 12L14 12L14 13L13 13L13 14L12 14L12 16L16 16L16 17L17 17L17 19L18 19L18 18L19 18L19 20L18 20L18 21L19 21L19 22L20 22L20 21L19 21L19 20L20 20L20 16L19 16L19 17L18 17L18 14L19 14L19 13L20 13L20 15L21 15L21 16L22 16L22 17L21 17L21 20L26 20L26 18L25 18L25 17L24 17L24 16L23 16L23 15L21 15L21 13L24 13L24 14L25 14L25 16L26 16L26 17L27 17L27 15L26 15L26 13L25 13L25 12L23 12L23 10L22 10L22 9ZM6 11L6 12L8 12L8 14L9 14L9 15L8 15L8 16L7 16L7 15L6 15L6 16L7 16L7 17L5 17L5 18L3 18L3 19L4 19L4 20L5 20L5 19L6 19L6 20L7 20L7 19L6 19L6 18L8 18L8 19L9 19L9 18L10 18L10 16L11 16L11 15L10 15L10 14L11 14L11 13L12 13L12 12L13 12L13 11L11 11L11 13L10 13L10 14L9 14L9 12L8 12L8 11ZM19 11L19 12L20 12L20 11ZM6 13L6 14L7 14L7 13ZM0 14L0 15L1 15L1 14ZM8 16L8 18L9 18L9 16ZM23 17L23 18L22 18L22 19L24 19L24 17ZM0 18L0 19L1 19L1 18ZM11 19L11 20L12 20L12 19ZM1 20L1 21L2 21L2 20ZM8 21L8 22L9 22L9 25L8 25L8 29L9 29L9 27L10 27L10 28L11 28L11 29L12 29L12 28L14 28L14 27L15 27L15 28L16 28L16 27L15 27L15 26L17 26L17 27L18 27L18 29L22 29L22 28L21 28L21 27L18 27L18 26L19 26L19 25L18 25L18 24L17 24L17 23L15 23L15 21L14 21L14 23L11 23L11 24L10 24L10 22L11 22L11 21ZM21 21L21 24L24 24L24 21ZM22 22L22 23L23 23L23 22ZM12 24L12 26L11 26L11 25L10 25L10 26L11 26L11 28L12 28L12 26L13 26L13 27L14 27L14 26L13 26L13 25L16 25L16 24ZM25 24L25 25L26 25L26 26L27 26L27 27L28 27L28 25L26 25L26 24ZM0 0L0 7L7 7L7 0ZM1 1L1 6L6 6L6 1ZM2 2L2 5L5 5L5 2ZM22 0L22 7L29 7L29 0ZM23 1L23 6L28 6L28 1ZM24 2L24 5L27 5L27 2ZM0 22L0 29L7 29L7 22ZM1 23L1 28L6 28L6 23ZM2 24L2 27L5 27L5 24Z" fill="#000000"/></g></g></svg>
