<?xml version="1.0" encoding="UTF-8"?>
<svg xmlns="http://www.w3.org/2000/svg" version="1.1" width="500" height="500" viewBox="0 0 500 500"><rect x="0" y="0" width="500" height="500" fill="#ffffff"/><g transform="scale(17.241)"><g transform="translate(0,0)"><path fill-rule="evenodd" d="M9 0L9 1L10 1L10 2L8 2L8 3L9 3L9 4L10 4L10 5L9 5L9 6L8 6L8 8L4 8L4 9L3 9L3 8L0 8L0 10L1 10L1 11L2 11L2 10L1 10L1 9L3 9L3 11L4 11L4 12L2 12L2 13L4 13L4 14L1 14L1 15L0 15L0 17L1 17L1 18L0 18L0 19L1 19L1 20L0 20L0 21L1 21L1 20L2 20L2 21L3 21L3 20L2 20L2 19L1 19L1 18L2 18L2 17L1 17L1 16L5 16L5 17L4 17L4 18L3 18L3 19L4 19L4 21L8 21L8 25L9 25L9 26L8 26L8 29L10 29L10 28L12 28L12 29L13 29L13 28L12 28L12 27L11 27L11 26L12 26L12 24L14 24L14 25L16 25L16 26L17 26L17 28L16 28L16 27L15 27L15 28L16 28L16 29L18 29L18 27L20 27L20 28L19 28L19 29L26 29L26 28L25 28L25 27L26 27L26 26L28 26L28 27L27 27L27 29L29 29L29 28L28 28L28 27L29 27L29 25L26 25L26 26L25 26L25 24L26 24L26 22L27 22L27 24L29 24L29 21L26 21L26 22L25 22L25 20L26 20L26 19L25 19L25 20L22 20L22 18L23 18L23 19L24 19L24 18L23 18L23 17L24 17L24 16L21 16L21 15L24 15L24 13L23 13L23 8L21 8L21 6L20 6L20 3L21 3L21 1L20 1L20 0L18 0L18 1L19 1L19 2L18 2L18 5L17 5L17 4L15 4L15 3L16 3L16 2L17 2L17 0L15 0L15 1L14 1L14 0L12 0L12 1L10 1L10 0ZM13 1L13 3L12 3L12 2L11 2L11 3L12 3L12 4L11 4L11 5L10 5L10 6L9 6L9 7L10 7L10 6L11 6L11 8L12 8L12 10L10 10L10 8L9 8L9 9L6 9L6 10L10 10L10 11L9 11L9 13L8 13L8 14L7 14L7 13L6 13L6 12L7 12L7 11L6 11L6 12L5 12L5 14L4 14L4 15L5 15L5 16L7 16L7 17L5 17L5 19L6 19L6 20L8 20L8 21L9 21L9 22L10 22L10 23L9 23L9 24L12 24L12 23L11 23L11 22L10 22L10 21L12 21L12 20L13 20L13 19L14 19L14 20L15 20L15 22L13 22L13 23L14 23L14 24L16 24L16 25L17 25L17 23L16 23L16 20L15 20L15 19L18 19L18 18L19 18L19 19L20 19L20 20L19 20L19 21L17 21L17 22L18 22L18 25L20 25L20 26L21 26L21 28L24 28L24 27L23 27L23 26L24 26L24 25L20 25L20 23L19 23L19 21L20 21L20 20L21 20L21 18L20 18L20 12L21 12L21 11L22 11L22 9L21 9L21 10L20 10L20 9L19 9L19 8L18 8L18 9L17 9L17 11L16 11L16 8L15 8L15 7L16 7L16 6L15 6L15 7L14 7L14 6L13 6L13 5L15 5L15 4L14 4L14 3L15 3L15 2L14 2L14 1ZM19 2L19 3L20 3L20 2ZM12 6L12 8L13 8L13 9L14 9L14 10L15 10L15 8L14 8L14 7L13 7L13 6ZM17 6L17 7L18 7L18 6ZM19 6L19 7L20 7L20 6ZM26 8L26 9L25 9L25 10L26 10L26 11L27 11L27 13L28 13L28 14L27 14L27 17L26 17L26 12L25 12L25 11L24 11L24 12L25 12L25 18L27 18L27 20L28 20L28 19L29 19L29 16L28 16L28 15L29 15L29 12L28 12L28 11L29 11L29 9L28 9L28 10L26 10L26 9L27 9L27 8ZM4 10L4 11L5 11L5 10ZM11 11L11 12L12 12L12 13L11 13L11 15L12 15L12 16L10 16L10 15L9 15L9 16L10 16L10 17L11 17L11 18L12 18L12 16L13 16L13 18L14 18L14 19L15 19L15 17L17 17L17 18L18 18L18 15L17 15L17 13L18 13L18 11L17 11L17 13L16 13L16 16L14 16L14 15L15 15L15 12L16 12L16 11L13 11L13 12L12 12L12 11ZM19 11L19 12L20 12L20 11ZM21 13L21 14L22 14L22 13ZM6 14L6 15L7 15L7 16L8 16L8 15L7 15L7 14ZM27 17L27 18L28 18L28 17ZM6 18L6 19L9 19L9 21L10 21L10 20L12 20L12 19L10 19L10 18ZM21 21L21 24L24 24L24 21ZM22 22L22 23L23 23L23 22ZM13 26L13 27L14 27L14 26ZM9 27L9 28L10 28L10 27ZM0 0L0 7L7 7L7 0ZM1 1L1 6L6 6L6 1ZM2 2L2 5L5 5L5 2ZM22 0L22 7L29 7L29 0ZM23 1L23 6L28 6L28 1ZM24 2L24 5L27 5L27 2ZM0 22L0 29L7 29L7 22ZM1 23L1 28L6 28L6 23ZM2 24L2 27L5 27L5 24Z" fill="#000000"/></g></g></svg>
