<?xml version="1.0" encoding="UTF-8"?>
<svg xmlns="http://www.w3.org/2000/svg" version="1.1" width="500" height="500" viewBox="0 0 500 500"><rect x="0" y="0" width="500" height="500" fill="#ffffff"/><g transform="scale(17.241)"><g transform="translate(0,0)"><path fill-rule="evenodd" d="M8 0L8 1L9 1L9 2L10 2L10 3L11 3L11 1L13 1L13 0L11 0L11 1L9 1L9 0ZM16 0L16 2L18 2L18 3L15 3L15 2L12 2L12 4L11 4L11 5L10 5L10 4L9 4L9 5L10 5L10 8L9 8L9 6L8 6L8 8L9 8L9 9L8 9L8 13L7 13L7 12L6 12L6 11L7 11L7 10L6 10L6 9L7 9L7 8L6 8L6 9L5 9L5 8L3 8L3 9L2 9L2 8L0 8L0 10L1 10L1 9L2 9L2 10L3 10L3 12L4 12L4 13L5 13L5 15L4 15L4 14L3 14L3 13L2 13L2 16L4 16L4 17L3 17L3 18L2 18L2 17L1 17L1 16L0 16L0 21L2 21L2 20L3 20L3 21L7 21L7 20L3 20L3 19L4 19L4 17L5 17L5 16L6 16L6 17L7 17L7 18L5 18L5 19L7 19L7 18L8 18L8 20L9 20L9 21L8 21L8 22L9 22L9 23L11 23L11 22L10 22L10 20L9 20L9 19L10 19L10 17L11 17L11 19L12 19L12 21L13 21L13 20L15 20L15 23L14 23L14 24L13 24L13 25L12 25L12 26L13 26L13 25L14 25L14 27L12 27L12 28L9 28L9 27L11 27L11 26L9 26L9 25L11 25L11 24L8 24L8 26L9 26L9 27L8 27L8 29L13 29L13 28L15 28L15 29L16 29L16 28L17 28L17 27L18 27L18 28L19 28L19 29L21 29L21 28L24 28L24 29L26 29L26 28L27 28L27 27L28 27L28 28L29 28L29 25L28 25L28 24L27 24L27 25L28 25L28 26L26 26L26 27L25 27L25 26L24 26L24 25L26 25L26 24L25 24L25 23L26 23L26 21L28 21L28 20L27 20L27 19L26 19L26 18L28 18L28 19L29 19L29 18L28 18L28 17L26 17L26 16L27 16L27 14L28 14L28 16L29 16L29 11L28 11L28 13L24 13L24 12L22 12L22 13L21 13L21 12L19 12L19 11L18 11L18 10L20 10L20 9L18 9L18 8L17 8L17 6L18 6L18 7L19 7L19 8L20 8L20 7L21 7L21 6L20 6L20 7L19 7L19 6L18 6L18 5L20 5L20 4L21 4L21 3L20 3L20 1L19 1L19 0ZM14 3L14 4L12 4L12 5L11 5L11 7L12 7L12 9L10 9L10 10L9 10L9 11L10 11L10 10L12 10L12 11L13 11L13 13L11 13L11 12L10 12L10 14L13 14L13 15L12 15L12 16L11 16L11 17L13 17L13 18L12 18L12 19L13 19L13 18L14 18L14 17L13 17L13 16L14 16L14 15L15 15L15 13L14 13L14 11L15 11L15 12L16 12L16 13L19 13L19 14L17 14L17 15L16 15L16 16L15 16L15 17L20 17L20 16L21 16L21 18L20 18L20 19L21 19L21 20L23 20L23 19L25 19L25 18L26 18L26 17L25 17L25 16L26 16L26 14L24 14L24 13L23 13L23 14L24 14L24 15L25 15L25 16L21 16L21 15L22 15L22 14L21 14L21 13L19 13L19 12L16 12L16 11L17 11L17 9L16 9L16 11L15 11L15 8L16 8L16 6L17 6L17 4L15 4L15 3ZM18 3L18 4L20 4L20 3ZM12 5L12 7L13 7L13 8L15 8L15 5L14 5L14 7L13 7L13 5ZM22 8L22 9L21 9L21 11L22 11L22 9L23 9L23 11L24 11L24 10L25 10L25 9L23 9L23 8ZM28 8L28 9L26 9L26 11L25 11L25 12L26 12L26 11L27 11L27 10L28 10L28 9L29 9L29 8ZM3 9L3 10L5 10L5 9ZM12 9L12 10L14 10L14 9ZM1 11L1 12L2 12L2 11ZM0 13L0 14L1 14L1 13ZM6 13L6 14L7 14L7 15L6 15L6 16L7 16L7 15L8 15L8 14L9 14L9 13L8 13L8 14L7 14L7 13ZM13 13L13 14L14 14L14 13ZM19 14L19 15L18 15L18 16L20 16L20 14ZM9 15L9 16L10 16L10 15ZM8 17L8 18L9 18L9 17ZM24 17L24 18L25 18L25 17ZM16 18L16 19L15 19L15 20L16 20L16 19L17 19L17 20L19 20L19 19L17 19L17 18ZM16 21L16 23L19 23L19 22L20 22L20 21L19 21L19 22L17 22L17 21ZM21 21L21 24L24 24L24 21ZM12 22L12 23L13 23L13 22ZM22 22L22 23L23 23L23 22ZM15 24L15 25L17 25L17 26L16 26L16 27L15 27L15 28L16 28L16 27L17 27L17 26L19 26L19 27L20 27L20 28L21 28L21 26L19 26L19 24ZM22 25L22 27L23 27L23 25ZM24 27L24 28L25 28L25 27ZM0 0L0 7L7 7L7 0ZM1 1L1 6L6 6L6 1ZM2 2L2 5L5 5L5 2ZM22 0L22 7L29 7L29 0ZM23 1L23 6L28 6L28 1ZM24 2L24 5L27 5L27 2ZM0 22L0 29L7 29L7 22ZM1 23L1 28L6 28L6 23ZM2 24L2 27L5 27L5 24Z" fill="#000000"/></g></g></svg>
