<?xml version="1.0" encoding="UTF-8"?>
<svg xmlns="http://www.w3.org/2000/svg" version="1.1" width="500" height="500" viewBox="0 0 500 500"><rect x="0" y="0" width="500" height="500" fill="#ffffff"/><g transform="scale(17.241)"><g transform="translate(0,0)"><path fill-rule="evenodd" d="M9 0L9 1L8 1L8 2L9 2L9 3L8 3L8 4L10 4L10 7L11 7L11 4L12 4L12 5L13 5L13 6L12 6L12 9L13 9L13 8L14 8L14 9L17 9L17 10L15 10L15 11L14 11L14 12L16 12L16 13L17 13L17 14L21 14L21 13L18 13L18 12L19 12L19 11L18 11L18 12L17 12L17 10L20 10L20 11L21 11L21 12L24 12L24 11L22 11L22 10L25 10L25 9L26 9L26 8L25 8L25 9L24 9L24 8L23 8L23 9L22 9L22 8L21 8L21 6L20 6L20 8L19 8L19 9L18 9L18 8L14 8L14 7L15 7L15 6L16 6L16 7L17 7L17 6L16 6L16 5L14 5L14 4L12 4L12 2L13 2L13 1L11 1L11 2L10 2L10 0ZM14 0L14 3L15 3L15 4L18 4L18 5L21 5L21 4L18 4L18 3L19 3L19 1L20 1L20 2L21 2L21 0L18 0L18 1L17 1L17 2L18 2L18 3L16 3L16 1L15 1L15 0ZM10 3L10 4L11 4L11 3ZM8 5L8 7L9 7L9 5ZM13 6L13 7L14 7L14 6ZM18 6L18 7L19 7L19 6ZM0 8L0 9L1 9L1 10L0 10L0 13L1 13L1 15L0 15L0 16L1 16L1 15L2 15L2 16L3 16L3 17L0 17L0 21L1 21L1 18L2 18L2 19L3 19L3 20L2 20L2 21L3 21L3 20L4 20L4 21L7 21L7 20L6 20L6 19L9 19L9 17L10 17L10 20L9 20L9 21L8 21L8 23L9 23L9 22L10 22L10 20L11 20L11 21L12 21L12 22L13 22L13 23L12 23L12 25L13 25L13 24L14 24L14 25L15 25L15 24L17 24L17 25L16 25L16 26L15 26L15 27L14 27L14 28L15 28L15 27L16 27L16 28L17 28L17 29L18 29L18 28L17 28L17 27L19 27L19 29L20 29L20 28L21 28L21 27L23 27L23 29L27 29L27 28L28 28L28 26L29 26L29 25L27 25L27 24L26 24L26 25L25 25L25 23L27 23L27 22L29 22L29 20L28 20L28 19L27 19L27 16L28 16L28 15L27 15L27 14L25 14L25 13L27 13L27 12L28 12L28 11L27 11L27 12L26 12L26 11L25 11L25 13L24 13L24 14L23 14L23 13L22 13L22 14L23 14L23 17L18 17L18 16L21 16L21 15L18 15L18 16L17 16L17 15L16 15L16 14L15 14L15 13L12 13L12 11L13 11L13 10L11 10L11 11L10 11L10 9L11 9L11 8L6 8L6 9L5 9L5 8ZM20 8L20 9L21 9L21 10L22 10L22 9L21 9L21 8ZM27 8L27 9L28 9L28 10L29 10L29 9L28 9L28 8ZM3 9L3 10L4 10L4 11L2 11L2 10L1 10L1 13L2 13L2 14L3 14L3 12L4 12L4 14L5 14L5 15L6 15L6 16L5 16L5 18L3 18L3 19L6 19L6 18L7 18L7 17L6 17L6 16L7 16L7 15L6 15L6 14L8 14L8 15L9 15L9 14L10 14L10 16L11 16L11 18L13 18L13 19L12 19L12 21L15 21L15 22L17 22L17 21L16 21L16 19L15 19L15 18L16 18L16 17L14 17L14 16L15 16L15 15L14 15L14 16L13 16L13 17L12 17L12 15L13 15L13 14L12 14L12 13L11 13L11 12L10 12L10 13L9 13L9 14L8 14L8 12L9 12L9 11L8 11L8 12L7 12L7 11L5 11L5 10L4 10L4 9ZM6 9L6 10L7 10L7 9ZM8 9L8 10L9 10L9 9ZM4 11L4 12L5 12L5 13L7 13L7 12L5 12L5 11ZM10 13L10 14L11 14L11 13ZM28 13L28 14L29 14L29 13ZM24 14L24 15L25 15L25 16L24 16L24 17L25 17L25 18L24 18L24 19L25 19L25 21L26 21L26 20L27 20L27 19L26 19L26 17L25 17L25 16L27 16L27 15L25 15L25 14ZM3 15L3 16L4 16L4 15ZM8 16L8 17L9 17L9 16ZM17 17L17 20L19 20L19 22L18 22L18 23L17 23L17 24L18 24L18 25L17 25L17 26L18 26L18 25L19 25L19 26L20 26L20 27L21 27L21 26L23 26L23 25L20 25L20 24L18 24L18 23L19 23L19 22L20 22L20 20L21 20L21 19L22 19L22 20L23 20L23 19L22 19L22 18L21 18L21 19L20 19L20 18L19 18L19 19L18 19L18 17ZM28 17L28 18L29 18L29 17ZM14 19L14 20L15 20L15 19ZM21 21L21 24L24 24L24 21ZM22 22L22 23L23 23L23 22ZM14 23L14 24L15 24L15 23ZM8 24L8 29L9 29L9 26L10 26L10 25L11 25L11 24ZM24 25L24 26L25 26L25 25ZM11 26L11 29L12 29L12 27L13 27L13 26ZM24 27L24 28L25 28L25 27ZM26 27L26 28L27 28L27 27ZM0 0L0 7L7 7L7 0ZM1 1L1 6L6 6L6 1ZM2 2L2 5L5 5L5 2ZM22 0L22 7L29 7L29 0ZM23 1L23 6L28 6L28 1ZM24 2L24 5L27 5L27 2ZM0 22L0 29L7 29L7 22ZM1 23L1 28L6 28L6 23ZM2 24L2 27L5 27L5 24Z" fill="#000000"/></g></g></svg>
