<?xml version="1.0" encoding="UTF-8"?>
<svg xmlns="http://www.w3.org/2000/svg" version="1.1" width="500" height="500" viewBox="0 0 500 500"><rect x="0" y="0" width="500" height="500" fill="#ffffff"/><g transform="scale(17.241)"><g transform="translate(0,0)"><path fill-rule="evenodd" d="M9 0L9 1L11 1L11 2L9 2L9 3L8 3L8 5L9 5L9 6L8 6L8 7L9 7L9 9L8 9L8 8L5 8L5 9L8 9L8 10L9 10L9 11L7 11L7 10L5 10L5 11L4 11L4 10L3 10L3 9L2 9L2 8L0 8L0 11L4 11L4 12L2 12L2 13L1 13L1 12L0 12L0 13L1 13L1 14L0 14L0 15L4 15L4 12L5 12L5 14L6 14L6 15L5 15L5 16L6 16L6 17L4 17L4 16L2 16L2 17L4 17L4 18L5 18L5 19L4 19L4 20L3 20L3 18L1 18L1 16L0 16L0 21L1 21L1 19L2 19L2 20L3 20L3 21L4 21L4 20L5 20L5 19L9 19L9 20L10 20L10 21L8 21L8 24L9 24L9 22L10 22L10 25L14 25L14 23L16 23L16 25L15 25L15 28L16 28L16 27L19 27L19 29L20 29L20 26L19 26L19 25L21 25L21 28L23 28L23 29L27 29L27 27L28 27L28 28L29 28L29 27L28 27L28 26L29 26L29 24L28 24L28 23L27 23L27 22L26 22L26 21L29 21L29 20L26 20L26 21L25 21L25 19L26 19L26 18L28 18L28 19L29 19L29 17L27 17L27 14L29 14L29 12L28 12L28 13L27 13L27 14L25 14L25 13L24 13L24 11L22 11L22 9L21 9L21 10L20 10L20 8L21 8L21 6L20 6L20 8L19 8L19 9L18 9L18 8L16 8L16 7L17 7L17 6L16 6L16 7L15 7L15 5L14 5L14 4L15 4L15 3L16 3L16 2L15 2L15 3L14 3L14 4L12 4L12 2L13 2L13 1L12 1L12 0ZM16 0L16 1L17 1L17 2L18 2L18 3L17 3L17 4L18 4L18 5L21 5L21 3L20 3L20 4L18 4L18 3L19 3L19 0ZM20 1L20 2L21 2L21 1ZM9 3L9 5L10 5L10 3ZM11 4L11 7L10 7L10 6L9 6L9 7L10 7L10 8L11 8L11 10L10 10L10 9L9 9L9 10L10 10L10 11L9 11L9 12L10 12L10 11L11 11L11 10L13 10L13 11L12 11L12 12L11 12L11 15L10 15L10 16L7 16L7 15L6 15L6 16L7 16L7 17L6 17L6 18L7 18L7 17L8 17L8 18L9 18L9 19L10 19L10 18L11 18L11 19L12 19L12 21L10 21L10 22L11 22L11 24L12 24L12 23L13 23L13 22L12 22L12 21L14 21L14 22L15 22L15 21L16 21L16 20L14 20L14 19L12 19L12 18L15 18L15 17L14 17L14 16L13 16L13 17L12 17L12 15L13 15L13 14L12 14L12 13L13 13L13 12L14 12L14 11L15 11L15 13L16 13L16 15L15 15L15 16L18 16L18 17L17 17L17 18L16 18L16 19L17 19L17 20L19 20L19 22L18 22L18 23L17 23L17 26L18 26L18 25L19 25L19 24L18 24L18 23L19 23L19 22L20 22L20 20L23 20L23 19L25 19L25 18L26 18L26 17L25 17L25 16L26 16L26 15L25 15L25 14L24 14L24 13L23 13L23 14L17 14L17 13L19 13L19 12L21 12L21 13L22 13L22 11L20 11L20 10L17 10L17 12L16 12L16 11L15 11L15 10L14 10L14 8L15 8L15 7L14 7L14 6L13 6L13 5L12 5L12 4ZM12 6L12 9L13 9L13 8L14 8L14 7L13 7L13 6ZM18 6L18 7L19 7L19 6ZM24 8L24 9L23 9L23 10L25 10L25 9L26 9L26 10L28 10L28 9L26 9L26 8ZM6 11L6 12L7 12L7 11ZM18 11L18 12L19 12L19 11ZM25 11L25 12L26 12L26 11ZM2 13L2 14L3 14L3 13ZM6 13L6 14L7 14L7 13ZM8 13L8 15L9 15L9 14L10 14L10 13ZM23 14L23 15L21 15L21 16L23 16L23 17L22 17L22 18L25 18L25 17L24 17L24 16L25 16L25 15L24 15L24 14ZM18 15L18 16L20 16L20 15ZM28 15L28 16L29 16L29 15ZM18 17L18 18L17 18L17 19L20 19L20 18L21 18L21 17ZM6 20L6 21L7 21L7 20ZM21 21L21 24L24 24L24 21ZM22 22L22 23L23 23L23 22ZM25 23L25 24L26 24L26 25L27 25L27 26L28 26L28 24L27 24L27 23ZM22 25L22 26L23 26L23 25ZM24 25L24 26L25 26L25 25ZM10 26L10 27L11 27L11 29L12 29L12 27L13 27L13 26ZM8 27L8 29L10 29L10 28L9 28L9 27ZM24 27L24 28L25 28L25 27ZM17 28L17 29L18 29L18 28ZM0 0L0 7L7 7L7 0ZM1 1L1 6L6 6L6 1ZM2 2L2 5L5 5L5 2ZM22 0L22 7L29 7L29 0ZM23 1L23 6L28 6L28 1ZM24 2L24 5L27 5L27 2ZM0 22L0 29L7 29L7 22ZM1 23L1 28L6 28L6 23ZM2 24L2 27L5 27L5 24Z" fill="#000000"/></g></g></svg>
