<?xml version="1.0" encoding="UTF-8"?>
<svg xmlns="http://www.w3.org/2000/svg" version="1.1" width="500" height="500" viewBox="0 0 500 500"><rect x="0" y="0" width="500" height="500" fill="#ffffff"/><g transform="scale(17.241)"><g transform="translate(0,0)"><path fill-rule="evenodd" d="M8 0L8 1L10 1L10 0ZM15 0L15 1L14 1L14 2L11 2L11 4L10 4L10 3L9 3L9 2L8 2L8 5L9 5L9 6L8 6L8 7L9 7L9 8L8 8L8 9L7 9L7 8L6 8L6 9L4 9L4 8L0 8L0 10L3 10L3 11L2 11L2 12L3 12L3 11L4 11L4 12L5 12L5 13L8 13L8 14L6 14L6 15L5 15L5 16L4 16L4 14L3 14L3 13L1 13L1 11L0 11L0 13L1 13L1 14L0 14L0 17L2 17L2 15L1 15L1 14L3 14L3 16L4 16L4 17L7 17L7 16L8 16L8 20L10 20L10 21L12 21L12 22L11 22L11 23L14 23L14 22L15 22L15 21L14 21L14 20L13 20L13 18L14 18L14 17L12 17L12 16L14 16L14 15L15 15L15 19L16 19L16 18L18 18L18 17L19 17L19 16L20 16L20 20L19 20L19 19L17 19L17 22L18 22L18 24L17 24L17 23L15 23L15 24L14 24L14 26L13 26L13 24L12 24L12 25L11 25L11 28L12 28L12 29L13 29L13 28L12 28L12 26L13 26L13 27L14 27L14 29L17 29L17 27L14 27L14 26L16 26L16 25L17 25L17 26L18 26L18 28L19 28L19 29L22 29L22 27L21 27L21 26L22 26L22 25L24 25L24 26L23 26L23 27L24 27L24 26L26 26L26 27L25 27L25 29L26 29L26 27L27 27L27 29L28 29L28 27L29 27L29 25L28 25L28 24L29 24L29 23L28 23L28 22L29 22L29 21L27 21L27 18L28 18L28 15L29 15L29 13L27 13L27 12L25 12L25 13L26 13L26 15L27 15L27 17L26 17L26 16L24 16L24 15L23 15L23 13L22 13L22 15L23 15L23 19L22 19L22 20L21 20L21 17L22 17L22 16L20 16L20 13L19 13L19 14L16 14L16 15L15 15L15 14L14 14L14 13L13 13L13 14L12 14L12 12L16 12L16 10L17 10L17 9L18 9L18 10L21 10L21 11L18 11L18 12L17 12L17 13L18 13L18 12L21 12L21 11L22 11L22 12L24 12L24 11L22 11L22 10L25 10L25 9L27 9L27 8L24 8L24 9L22 9L22 8L21 8L21 9L19 9L19 8L18 8L18 7L19 7L19 6L20 6L20 7L21 7L21 6L20 6L20 3L21 3L21 0L18 0L18 1L17 1L17 0ZM16 1L16 3L12 3L12 5L10 5L10 6L9 6L9 7L10 7L10 8L9 8L9 9L8 9L8 10L7 10L7 9L6 9L6 10L7 10L7 11L6 11L6 12L7 12L7 11L9 11L9 12L10 12L10 13L11 13L11 11L14 11L14 10L15 10L15 9L16 9L16 8L17 8L17 7L18 7L18 6L17 6L17 5L19 5L19 4L16 4L16 3L18 3L18 2L20 2L20 1L18 1L18 2L17 2L17 1ZM13 4L13 5L12 5L12 7L11 7L11 6L10 6L10 7L11 7L11 8L12 8L12 7L13 7L13 9L15 9L15 5L14 5L14 4ZM13 5L13 7L14 7L14 5ZM16 6L16 7L17 7L17 6ZM28 8L28 10L26 10L26 11L28 11L28 12L29 12L29 11L28 11L28 10L29 10L29 8ZM9 9L9 10L10 10L10 9ZM21 9L21 10L22 10L22 9ZM4 10L4 11L5 11L5 10ZM10 14L10 16L9 16L9 15L8 15L8 16L9 16L9 17L10 17L10 18L9 18L9 19L10 19L10 20L12 20L12 19L11 19L11 18L12 18L12 17L10 17L10 16L12 16L12 14ZM13 14L13 15L14 15L14 14ZM6 15L6 16L7 16L7 15ZM16 15L16 16L17 16L17 17L18 17L18 16L19 16L19 15ZM24 17L24 18L25 18L25 19L23 19L23 20L26 20L26 18L25 18L25 17ZM0 18L0 19L1 19L1 18ZM2 18L2 20L1 20L1 21L3 21L3 19L4 19L4 18ZM6 18L6 19L5 19L5 20L4 20L4 21L5 21L5 20L6 20L6 21L7 21L7 20L6 20L6 19L7 19L7 18ZM18 20L18 22L20 22L20 21L19 21L19 20ZM8 21L8 22L9 22L9 25L8 25L8 29L10 29L10 28L9 28L9 27L10 27L10 22L9 22L9 21ZM21 21L21 24L24 24L24 21ZM22 22L22 23L23 23L23 22ZM26 22L26 24L25 24L25 25L26 25L26 26L27 26L27 27L28 27L28 25L26 25L26 24L27 24L27 22ZM19 23L19 24L18 24L18 25L19 25L19 28L20 28L20 23ZM23 28L23 29L24 29L24 28ZM0 0L0 7L7 7L7 0ZM1 1L1 6L6 6L6 1ZM2 2L2 5L5 5L5 2ZM22 0L22 7L29 7L29 0ZM23 1L23 6L28 6L28 1ZM24 2L24 5L27 5L27 2ZM0 22L0 29L7 29L7 22ZM1 23L1 28L6 28L6 23ZM2 24L2 27L5 27L5 24Z" fill="#000000"/></g></g></svg>
