<?xml version="1.0" encoding="UTF-8"?>
<svg xmlns="http://www.w3.org/2000/svg" version="1.1" width="500" height="500" viewBox="0 0 500 500"><rect x="0" y="0" width="500" height="500" fill="#ffffff"/><g transform="scale(17.241)"><g transform="translate(0,0)"><path fill-rule="evenodd" d="M11 0L11 1L9 1L9 2L11 2L11 1L13 1L13 2L12 2L12 4L14 4L14 7L15 7L15 4L18 4L18 5L21 5L21 3L20 3L20 4L18 4L18 3L19 3L19 0L16 0L16 3L15 3L15 1L13 1L13 0ZM20 1L20 2L21 2L21 1ZM13 2L13 3L14 3L14 4L15 4L15 3L14 3L14 2ZM17 2L17 3L18 3L18 2ZM8 3L8 5L10 5L10 4L9 4L9 3ZM11 5L11 6L10 6L10 8L9 8L9 10L8 10L8 11L7 11L7 10L6 10L6 9L8 9L8 8L5 8L5 10L2 10L2 11L3 11L3 12L2 12L2 14L1 14L1 13L0 13L0 14L1 14L1 15L0 15L0 21L1 21L1 19L2 19L2 18L3 18L3 19L4 19L4 20L6 20L6 21L8 21L8 24L9 24L9 26L10 26L10 27L8 27L8 29L11 29L11 28L10 28L10 27L11 27L11 24L12 24L12 23L13 23L13 22L14 22L14 20L13 20L13 19L16 19L16 20L15 20L15 23L14 23L14 24L13 24L13 25L12 25L12 26L13 26L13 27L12 27L12 29L13 29L13 28L14 28L14 29L16 29L16 28L17 28L17 29L18 29L18 28L19 28L19 29L20 29L20 26L17 26L17 25L15 25L15 24L16 24L16 20L17 20L17 23L18 23L18 24L19 24L19 25L21 25L21 28L23 28L23 29L27 29L27 27L28 27L28 28L29 28L29 27L28 27L28 26L29 26L29 25L28 25L28 24L29 24L29 23L28 23L28 24L27 24L27 25L26 25L26 24L25 24L25 23L27 23L27 22L26 22L26 21L29 21L29 20L26 20L26 21L25 21L25 19L26 19L26 18L28 18L28 19L29 19L29 17L27 17L27 14L29 14L29 12L28 12L28 13L27 13L27 14L25 14L25 13L24 13L24 11L22 11L22 9L21 9L21 10L20 10L20 8L21 8L21 6L20 6L20 8L19 8L19 9L18 9L18 8L17 8L17 5L16 5L16 8L15 8L15 10L14 10L14 8L13 8L13 9L12 9L12 7L13 7L13 5ZM8 6L8 7L9 7L9 6ZM11 6L11 7L12 7L12 6ZM18 6L18 7L19 7L19 6ZM0 8L0 12L1 12L1 9L2 9L2 8ZM10 8L10 10L9 10L9 11L8 11L8 12L7 12L7 11L4 11L4 12L3 12L3 14L2 14L2 15L1 15L1 16L3 16L3 14L7 14L7 13L9 13L9 11L10 11L10 16L7 16L7 15L6 15L6 16L7 16L7 17L4 17L4 18L5 18L5 19L6 19L6 20L7 20L7 19L6 19L6 18L7 18L7 17L10 17L10 18L12 18L12 19L8 19L8 20L10 20L10 21L11 21L11 22L13 22L13 21L12 21L12 19L13 19L13 18L14 18L14 17L16 17L16 19L17 19L17 20L19 20L19 22L18 22L18 23L19 23L19 22L20 22L20 20L23 20L23 19L25 19L25 18L26 18L26 17L25 17L25 16L26 16L26 15L25 15L25 14L24 14L24 13L23 13L23 14L16 14L16 16L14 16L14 15L15 15L15 14L14 14L14 10L12 10L12 9L11 9L11 8ZM16 8L16 11L15 11L15 12L16 12L16 13L19 13L19 12L21 12L21 13L22 13L22 11L20 11L20 10L17 10L17 8ZM24 8L24 9L23 9L23 10L25 10L25 9L26 9L26 10L28 10L28 9L26 9L26 8ZM10 10L10 11L11 11L11 10ZM12 11L12 12L11 12L11 13L13 13L13 11ZM18 11L18 12L19 12L19 11ZM25 11L25 12L26 12L26 11ZM6 12L6 13L7 13L7 12ZM11 14L11 16L10 16L10 17L12 17L12 18L13 18L13 17L14 17L14 16L13 16L13 17L12 17L12 15L14 15L14 14ZM23 14L23 15L21 15L21 16L23 16L23 17L22 17L22 18L25 18L25 17L24 17L24 16L25 16L25 15L24 15L24 14ZM4 15L4 16L5 16L5 15ZM18 15L18 16L17 16L17 17L18 17L18 18L17 18L17 19L20 19L20 18L21 18L21 17L18 17L18 16L20 16L20 15ZM28 15L28 16L29 16L29 15ZM2 20L2 21L3 21L3 20ZM21 21L21 24L24 24L24 21ZM9 22L9 23L10 23L10 22ZM22 22L22 23L23 23L23 22ZM14 25L14 26L15 26L15 25ZM22 25L22 26L23 26L23 25ZM24 25L24 26L25 26L25 25ZM27 25L27 26L28 26L28 25ZM15 27L15 28L16 28L16 27ZM17 27L17 28L18 28L18 27ZM24 27L24 28L25 28L25 27ZM0 0L0 7L7 7L7 0ZM1 1L1 6L6 6L6 1ZM2 2L2 5L5 5L5 2ZM22 0L22 7L29 7L29 0ZM23 1L23 6L28 6L28 1ZM24 2L24 5L27 5L27 2ZM0 22L0 29L7 29L7 22ZM1 23L1 28L6 28L6 23ZM2 24L2 27L5 27L5 24Z" fill="#000000"/></g></g></svg>
