<?xml version="1.0" encoding="UTF-8"?>
<svg xmlns="http://www.w3.org/2000/svg" version="1.1" width="500" height="500" viewBox="0 0 500 500"><rect x="0" y="0" width="500" height="500" fill="#ffffff"/><g transform="scale(17.241)"><g transform="translate(0,0)"><path fill-rule="evenodd" d="M8 0L8 1L10 1L10 0ZM14 0L14 1L13 1L13 2L11 2L11 4L10 4L10 3L9 3L9 2L8 2L8 5L9 5L9 6L8 6L8 7L9 7L9 8L8 8L8 9L9 9L9 10L8 10L8 13L7 13L7 12L4 12L4 11L7 11L7 10L6 10L6 9L7 9L7 8L6 8L6 9L5 9L5 10L4 10L4 11L2 11L2 9L4 9L4 8L0 8L0 9L1 9L1 10L0 10L0 11L1 11L1 12L0 12L0 14L2 14L2 15L3 15L3 16L1 16L1 15L0 15L0 16L1 16L1 18L0 18L0 19L1 19L1 18L3 18L3 19L2 19L2 20L1 20L1 21L8 21L8 22L9 22L9 20L5 20L5 19L7 19L7 18L9 18L9 19L10 19L10 17L12 17L12 18L11 18L11 19L12 19L12 20L11 20L11 21L10 21L10 23L9 23L9 24L10 24L10 25L11 25L11 26L10 26L10 27L9 27L9 25L8 25L8 29L11 29L11 28L12 28L12 29L13 29L13 28L12 28L12 26L13 26L13 27L14 27L14 29L16 29L16 28L17 28L17 27L18 27L18 24L17 24L17 25L15 25L15 24L14 24L14 26L13 26L13 24L12 24L12 25L11 25L11 23L14 23L14 22L15 22L15 21L16 21L16 20L17 20L17 22L16 22L16 23L17 23L17 22L18 22L18 23L20 23L20 26L22 26L22 25L24 25L24 26L23 26L23 28L24 28L24 26L26 26L26 27L25 27L25 29L26 29L26 27L27 27L27 29L28 29L28 27L29 27L29 25L28 25L28 27L27 27L27 26L26 26L26 25L27 25L27 24L29 24L29 23L28 23L28 22L29 22L29 21L27 21L27 18L28 18L28 15L29 15L29 13L27 13L27 12L25 12L25 9L27 9L27 8L24 8L24 9L22 9L22 8L21 8L21 9L19 9L19 6L20 6L20 7L21 7L21 6L20 6L20 4L19 4L19 5L18 5L18 3L17 3L17 1L16 1L16 3L15 3L15 0ZM18 0L18 1L21 1L21 0ZM19 2L19 3L20 3L20 2ZM12 3L12 5L10 5L10 6L9 6L9 7L10 7L10 8L9 8L9 9L10 9L10 10L9 10L9 12L10 12L10 13L9 13L9 14L10 14L10 15L8 15L8 16L7 16L7 15L6 15L6 14L7 14L7 13L4 13L4 12L2 12L2 14L4 14L4 16L3 16L3 17L4 17L4 19L5 19L5 16L7 16L7 17L6 17L6 18L7 18L7 17L8 17L8 16L9 16L9 17L10 17L10 16L12 16L12 17L14 17L14 18L13 18L13 20L14 20L14 21L15 21L15 17L16 17L16 18L17 18L17 19L18 19L18 18L19 18L19 20L18 20L18 21L19 21L19 22L20 22L20 21L19 21L19 20L20 20L20 16L19 16L19 17L18 17L18 14L19 14L19 13L20 13L20 15L21 15L21 16L22 16L22 17L21 17L21 20L26 20L26 18L25 18L25 17L24 17L24 16L23 16L23 15L21 15L21 13L24 13L24 14L25 14L25 16L26 16L26 17L27 17L27 15L26 15L26 13L25 13L25 12L23 12L23 10L22 10L22 9L21 9L21 10L19 10L19 11L16 11L16 10L17 10L17 7L18 7L18 5L17 5L17 4L16 4L16 5L15 5L15 7L16 7L16 8L15 8L15 9L13 9L13 7L14 7L14 5L13 5L13 4L15 4L15 3ZM12 5L12 7L11 7L11 6L10 6L10 7L11 7L11 8L12 8L12 7L13 7L13 5ZM16 5L16 7L17 7L17 5ZM28 8L28 10L26 10L26 11L28 11L28 12L29 12L29 11L28 11L28 10L29 10L29 8ZM14 10L14 11L11 11L11 13L10 13L10 14L12 14L12 16L14 16L14 15L15 15L15 16L16 16L16 17L17 17L17 14L16 14L16 13L18 13L18 12L16 12L16 13L15 13L15 14L14 14L14 13L13 13L13 14L12 14L12 12L15 12L15 10ZM19 11L19 12L20 12L20 11ZM13 14L13 15L14 15L14 14ZM15 14L15 15L16 15L16 14ZM23 17L23 18L22 18L22 19L24 19L24 17ZM11 21L11 22L12 22L12 21ZM21 21L21 24L24 24L24 21ZM22 22L22 23L23 23L23 22ZM26 22L26 24L25 24L25 25L26 25L26 24L27 24L27 22ZM14 26L14 27L15 27L15 28L16 28L16 27L17 27L17 26ZM10 27L10 28L11 28L11 27ZM19 27L19 28L18 28L18 29L22 29L22 28L21 28L21 27ZM0 0L0 7L7 7L7 0ZM1 1L1 6L6 6L6 1ZM2 2L2 5L5 5L5 2ZM22 0L22 7L29 7L29 0ZM23 1L23 6L28 6L28 1ZM24 2L24 5L27 5L27 2ZM0 22L0 29L7 29L7 22ZM1 23L1 28L6 28L6 23ZM2 24L2 27L5 27L5 24Z" fill="#000000"/></g></g></svg>
