<?xml version="1.0" encoding="UTF-8"?>
<svg xmlns="http://www.w3.org/2000/svg" version="1.1" width="500" height="500" viewBox="0 0 500 500"><rect x="0" y="0" width="500" height="500" fill="#ffffff"/><g transform="scale(17.241)"><g transform="translate(0,0)"><path fill-rule="evenodd" d="M8 0L8 4L10 4L10 3L11 3L11 4L12 4L12 2L11 2L11 0ZM12 0L12 1L13 1L13 0ZM15 0L15 1L16 1L16 2L17 2L17 3L16 3L16 4L15 4L15 2L14 2L14 3L13 3L13 5L11 5L11 6L10 6L10 7L9 7L9 5L8 5L8 7L9 7L9 8L10 8L10 7L11 7L11 6L12 6L12 8L11 8L11 9L8 9L8 10L5 10L5 9L7 9L7 8L4 8L4 9L2 9L2 8L0 8L0 10L1 10L1 11L0 11L0 13L1 13L1 16L0 16L0 18L4 18L4 17L1 17L1 16L3 16L3 14L2 14L2 13L1 13L1 11L3 11L3 10L5 10L5 12L3 12L3 13L8 13L8 15L10 15L10 16L11 16L11 17L12 17L12 18L11 18L11 19L10 19L10 20L12 20L12 21L13 21L13 22L14 22L14 23L16 23L16 24L13 24L13 23L12 23L12 24L11 24L11 23L10 23L10 21L9 21L9 17L8 17L8 16L6 16L6 17L8 17L8 18L5 18L5 19L3 19L3 20L0 20L0 21L4 21L4 20L5 20L5 21L7 21L7 20L8 20L8 22L9 22L9 23L8 23L8 25L9 25L9 27L8 27L8 29L9 29L9 28L10 28L10 29L11 29L11 28L12 28L12 29L14 29L14 27L15 27L15 28L17 28L17 29L18 29L18 27L16 27L16 26L17 26L17 25L18 25L18 23L19 23L19 28L20 28L20 29L22 29L22 28L23 28L23 29L25 29L25 28L26 28L26 27L27 27L27 29L28 29L28 28L29 28L29 24L28 24L28 23L29 23L29 17L28 17L28 16L29 16L29 13L28 13L28 12L29 12L29 8L25 8L25 9L24 9L24 8L23 8L23 9L21 9L21 5L19 5L19 3L18 3L18 2L20 2L20 1L19 1L19 0L18 0L18 1L16 1L16 0ZM9 2L9 3L10 3L10 2ZM17 3L17 4L16 4L16 5L15 5L15 4L14 4L14 6L13 6L13 8L12 8L12 9L11 9L11 10L9 10L9 11L6 11L6 12L8 12L8 13L10 13L10 14L11 14L11 16L12 16L12 17L14 17L14 18L13 18L13 19L12 19L12 20L13 20L13 21L14 21L14 22L15 22L15 21L17 21L17 18L18 18L18 19L19 19L19 20L21 20L21 19L23 19L23 20L26 20L26 21L25 21L25 22L27 22L27 23L25 23L25 24L26 24L26 25L24 25L24 26L23 26L23 25L22 25L22 27L21 27L21 26L20 26L20 27L21 27L21 28L22 28L22 27L23 27L23 28L24 28L24 27L25 27L25 26L28 26L28 24L27 24L27 23L28 23L28 20L27 20L27 19L28 19L28 18L27 18L27 15L28 15L28 14L27 14L27 15L24 15L24 13L27 13L27 11L28 11L28 10L25 10L25 11L26 11L26 12L24 12L24 11L22 11L22 13L23 13L23 16L22 16L22 14L21 14L21 13L19 13L19 12L21 12L21 11L20 11L20 10L21 10L21 9L20 9L20 6L19 6L19 5L18 5L18 3ZM16 5L16 7L15 7L15 6L14 6L14 7L15 7L15 8L14 8L14 9L15 9L15 10L14 10L14 13L13 13L13 12L12 12L12 11L13 11L13 9L12 9L12 10L11 10L11 11L10 11L10 13L11 13L11 12L12 12L12 13L13 13L13 15L12 15L12 16L13 16L13 15L14 15L14 13L15 13L15 15L17 15L17 17L18 17L18 18L19 18L19 17L22 17L22 18L24 18L24 19L25 19L25 18L26 18L26 19L27 19L27 18L26 18L26 17L24 17L24 16L23 16L23 17L22 17L22 16L21 16L21 15L19 15L19 13L18 13L18 11L19 11L19 9L18 9L18 8L19 8L19 6L18 6L18 7L17 7L17 5ZM16 7L16 8L15 8L15 9L17 9L17 7ZM1 9L1 10L2 10L2 9ZM15 12L15 13L16 13L16 12ZM4 14L4 15L7 15L7 14ZM18 15L18 17L19 17L19 15ZM14 16L14 17L15 17L15 19L14 19L14 21L15 21L15 20L16 20L16 16ZM20 18L20 19L21 19L21 18ZM5 19L5 20L7 20L7 19ZM21 21L21 24L24 24L24 21ZM17 22L17 23L18 23L18 22ZM22 22L22 23L23 23L23 22ZM9 23L9 25L10 25L10 26L12 26L12 25L13 25L13 26L14 26L14 25L13 25L13 24L12 24L12 25L10 25L10 23ZM12 27L12 28L13 28L13 27ZM0 0L0 7L7 7L7 0ZM1 1L1 6L6 6L6 1ZM2 2L2 5L5 5L5 2ZM22 0L22 7L29 7L29 0ZM23 1L23 6L28 6L28 1ZM24 2L24 5L27 5L27 2ZM0 22L0 29L7 29L7 22ZM1 23L1 28L6 28L6 23ZM2 24L2 27L5 27L5 24Z" fill="#000000"/></g></g></svg>
