<?xml version="1.0" encoding="UTF-8"?>
<svg xmlns="http://www.w3.org/2000/svg" version="1.1" width="500" height="500" viewBox="0 0 500 500"><rect x="0" y="0" width="500" height="500" fill="#ffffff"/><g transform="scale(17.241)"><g transform="translate(0,0)"><path fill-rule="evenodd" d="M10 0L10 1L8 1L8 3L9 3L9 4L8 4L8 8L6 8L6 9L8 9L8 11L7 11L7 10L6 10L6 11L7 11L7 12L5 12L5 13L4 13L4 12L3 12L3 9L4 9L4 8L3 8L3 9L2 9L2 8L0 8L0 10L1 10L1 12L0 12L0 13L1 13L1 12L2 12L2 13L3 13L3 15L2 15L2 14L1 14L1 15L0 15L0 16L1 16L1 15L2 15L2 16L3 16L3 17L4 17L4 16L3 16L3 15L4 15L4 14L5 14L5 15L7 15L7 16L5 16L5 17L7 17L7 18L4 18L4 19L2 19L2 20L5 20L5 21L7 21L7 20L9 20L9 19L10 19L10 18L9 18L9 17L8 17L8 16L9 16L9 15L10 15L10 16L12 16L12 18L11 18L11 19L12 19L12 20L13 20L13 18L14 18L14 20L15 20L15 21L14 21L14 22L15 22L15 21L16 21L16 20L15 20L15 17L14 17L14 16L12 16L12 12L14 12L14 13L13 13L13 15L15 15L15 16L16 16L16 18L17 18L17 17L18 17L18 14L17 14L17 13L18 13L18 12L17 12L17 10L16 10L16 11L15 11L15 10L14 10L14 9L15 9L15 8L14 8L14 7L15 7L15 6L16 6L16 8L19 8L19 9L20 9L20 10L19 10L19 12L20 12L20 13L19 13L19 14L21 14L21 15L20 15L20 16L19 16L19 17L21 17L21 20L20 20L20 21L19 21L19 18L18 18L18 19L17 19L17 20L18 20L18 21L19 21L19 22L20 22L20 25L22 25L22 26L23 26L23 25L24 25L24 28L23 28L23 29L25 29L25 27L27 27L27 29L28 29L28 27L29 27L29 26L28 26L28 25L29 25L29 24L27 24L27 23L28 23L28 22L29 22L29 21L27 21L27 20L29 20L29 17L28 17L28 15L29 15L29 14L25 14L25 16L26 16L26 15L27 15L27 17L28 17L28 18L27 18L27 20L26 20L26 22L27 22L27 23L25 23L25 20L23 20L23 19L24 19L24 16L23 16L23 17L22 17L22 16L21 16L21 15L23 15L23 14L24 14L24 13L23 13L23 12L25 12L25 13L26 13L26 12L27 12L27 13L29 13L29 12L28 12L28 10L29 10L29 9L28 9L28 8L26 8L26 9L25 9L25 8L22 8L22 10L23 10L23 9L25 9L25 11L20 11L20 10L21 10L21 9L20 9L20 8L21 8L21 5L19 5L19 4L20 4L20 3L19 3L19 2L16 2L16 1L17 1L17 0L15 0L15 1L14 1L14 2L16 2L16 3L15 3L15 4L14 4L14 3L12 3L12 7L11 7L11 4L10 4L10 3L9 3L9 2L11 2L11 0ZM18 0L18 1L20 1L20 2L21 2L21 1L20 1L20 0ZM17 3L17 4L16 4L16 6L17 6L17 7L18 7L18 3ZM13 4L13 7L12 7L12 8L13 8L13 9L14 9L14 8L13 8L13 7L14 7L14 6L15 6L15 5L14 5L14 4ZM9 5L9 8L8 8L8 9L10 9L10 10L9 10L9 11L11 11L11 8L10 8L10 5ZM19 6L19 8L20 8L20 6ZM1 9L1 10L2 10L2 9ZM26 9L26 10L28 10L28 9ZM4 10L4 11L5 11L5 10ZM14 11L14 12L15 12L15 11ZM25 11L25 12L26 12L26 11ZM7 12L7 13L6 13L6 14L7 14L7 13L8 13L8 15L9 15L9 14L10 14L10 15L11 15L11 13L10 13L10 12L9 12L9 13L8 13L8 12ZM16 12L16 13L15 13L15 15L16 15L16 13L17 13L17 12ZM21 13L21 14L23 14L23 13ZM1 17L1 18L0 18L0 19L1 19L1 18L2 18L2 17ZM25 17L25 18L26 18L26 17ZM7 18L7 19L5 19L5 20L7 20L7 19L9 19L9 18ZM22 18L22 19L23 19L23 18ZM0 20L0 21L1 21L1 20ZM8 21L8 23L10 23L10 21ZM11 21L11 22L12 22L12 21ZM21 21L21 24L24 24L24 21ZM16 22L16 23L14 23L14 24L15 24L15 25L17 25L17 26L18 26L18 27L16 27L16 28L15 28L15 27L13 27L13 24L12 24L12 25L11 25L11 24L9 24L9 25L8 25L8 26L10 26L10 28L11 28L11 29L12 29L12 28L13 28L13 29L16 29L16 28L17 28L17 29L18 29L18 28L19 28L19 27L20 27L20 29L22 29L22 28L21 28L21 27L20 27L20 26L18 26L18 24L17 24L17 23L18 23L18 22ZM22 22L22 23L23 23L23 22ZM25 24L25 25L27 25L27 24ZM11 26L11 28L12 28L12 26ZM27 26L27 27L28 27L28 26ZM8 27L8 29L9 29L9 27ZM0 0L0 7L7 7L7 0ZM1 1L1 6L6 6L6 1ZM2 2L2 5L5 5L5 2ZM22 0L22 7L29 7L29 0ZM23 1L23 6L28 6L28 1ZM24 2L24 5L27 5L27 2ZM0 22L0 29L7 29L7 22ZM1 23L1 28L6 28L6 23ZM2 24L2 27L5 27L5 24Z" fill="#000000"/></g></g></svg>
