<?xml version="1.0" encoding="UTF-8"?>
<svg xmlns="http://www.w3.org/2000/svg" version="1.1" width="500" height="500" viewBox="0 0 500 500"><rect x="0" y="0" width="500" height="500" fill="#ffffff"/><g transform="scale(17.241)"><g transform="translate(0,0)"><path fill-rule="evenodd" d="M8 0L8 2L9 2L9 3L10 3L10 2L9 2L9 1L11 1L11 2L12 2L12 0ZM13 0L13 1L15 1L15 2L16 2L16 0ZM17 0L17 1L19 1L19 0ZM13 2L13 3L11 3L11 5L9 5L9 4L8 4L8 10L6 10L6 11L7 11L7 12L6 12L6 13L5 13L5 12L4 12L4 11L5 11L5 10L1 10L1 9L3 9L3 8L0 8L0 12L1 12L1 14L0 14L0 15L1 15L1 18L0 18L0 19L2 19L2 15L3 15L3 16L4 16L4 17L3 17L3 20L0 20L0 21L5 21L5 20L6 20L6 21L7 21L7 20L8 20L8 22L9 22L9 23L8 23L8 24L9 24L9 25L10 25L10 26L11 26L11 25L12 25L12 27L11 27L11 28L10 28L10 27L9 27L9 26L8 26L8 29L11 29L11 28L13 28L13 29L15 29L15 27L16 27L16 28L17 28L17 27L18 27L18 26L19 26L19 25L21 25L21 27L20 27L20 29L21 29L21 27L22 27L22 25L23 25L23 26L24 26L24 28L22 28L22 29L25 29L25 28L26 28L26 27L25 27L25 26L27 26L27 27L29 27L29 24L28 24L28 23L29 23L29 21L28 21L28 20L27 20L27 21L26 21L26 20L24 20L24 19L26 19L26 18L28 18L28 19L29 19L29 16L28 16L28 17L26 17L26 18L24 18L24 16L25 16L25 14L24 14L24 11L25 11L25 12L26 12L26 11L27 11L27 10L28 10L28 11L29 11L29 8L27 8L27 10L24 10L24 9L25 9L25 8L21 8L21 6L20 6L20 9L19 9L19 10L18 10L18 12L19 12L19 15L18 15L18 16L19 16L19 19L18 19L18 17L17 17L17 18L16 18L16 16L17 16L17 15L16 15L16 14L15 14L15 12L16 12L16 13L17 13L17 14L18 14L18 13L17 13L17 8L15 8L15 9L16 9L16 11L15 11L15 10L13 10L13 9L14 9L14 7L15 7L15 5L16 5L16 7L17 7L17 6L18 6L18 7L19 7L19 4L20 4L20 2L19 2L19 4L18 4L18 2L17 2L17 3L15 3L15 5L13 5L13 3L14 3L14 2ZM17 4L17 5L18 5L18 4ZM11 5L11 7L10 7L10 6L9 6L9 7L10 7L10 9L9 9L9 10L11 10L11 11L12 11L12 9L11 9L11 8L13 8L13 7L14 7L14 6L13 6L13 7L12 7L12 5ZM5 8L5 9L7 9L7 8ZM20 10L20 11L19 11L19 12L20 12L20 11L21 11L21 14L22 14L22 12L23 12L23 11L24 11L24 10L23 10L23 11L22 11L22 10ZM8 11L8 12L7 12L7 13L6 13L6 14L5 14L5 13L4 13L4 12L2 12L2 13L3 13L3 15L4 15L4 16L5 16L5 18L7 18L7 17L6 17L6 16L7 16L7 15L8 15L8 16L9 16L9 19L8 19L8 20L10 20L10 21L9 21L9 22L10 22L10 23L9 23L9 24L13 24L13 23L14 23L14 25L13 25L13 26L15 26L15 22L13 22L13 20L14 20L14 19L13 19L13 20L10 20L10 18L11 18L11 19L12 19L12 17L11 17L11 16L13 16L13 15L14 15L14 17L13 17L13 18L15 18L15 14L13 14L13 12L14 12L14 11L13 11L13 12L11 12L11 14L9 14L9 12L10 12L10 11ZM28 12L28 13L27 13L27 14L28 14L28 15L29 15L29 12ZM7 13L7 14L6 14L6 15L7 15L7 14L8 14L8 15L9 15L9 14L8 14L8 13ZM1 14L1 15L2 15L2 14ZM4 14L4 15L5 15L5 14ZM11 14L11 15L10 15L10 16L11 16L11 15L12 15L12 14ZM20 15L20 16L21 16L21 18L20 18L20 19L19 19L19 20L22 20L22 16L23 16L23 15L22 15L22 16L21 16L21 15ZM23 18L23 19L24 19L24 18ZM4 19L4 20L5 20L5 19ZM6 19L6 20L7 20L7 19ZM15 19L15 20L16 20L16 27L17 27L17 26L18 26L18 25L19 25L19 24L18 24L18 23L20 23L20 21L19 21L19 22L17 22L17 21L18 21L18 19ZM10 21L10 22L11 22L11 23L12 23L12 22L11 22L11 21ZM21 21L21 24L24 24L24 21ZM27 21L27 22L25 22L25 24L26 24L26 25L27 25L27 26L28 26L28 25L27 25L27 23L28 23L28 21ZM22 22L22 23L23 23L23 22ZM13 27L13 28L14 28L14 27ZM18 28L18 29L19 29L19 28ZM28 28L28 29L29 29L29 28ZM0 0L0 7L7 7L7 0ZM1 1L1 6L6 6L6 1ZM2 2L2 5L5 5L5 2ZM22 0L22 7L29 7L29 0ZM23 1L23 6L28 6L28 1ZM24 2L24 5L27 5L27 2ZM0 22L0 29L7 29L7 22ZM1 23L1 28L6 28L6 23ZM2 24L2 27L5 27L5 24Z" fill="#000000"/></g></g></svg>
