<?xml version="1.0" encoding="UTF-8"?>
<svg xmlns="http://www.w3.org/2000/svg" version="1.1" width="500" height="500" viewBox="0 0 500 500"><rect x="0" y="0" width="500" height="500" fill="#ffffff"/><g transform="scale(17.241)"><g transform="translate(0,0)"><path fill-rule="evenodd" d="M10 0L10 2L11 2L11 0ZM12 0L12 1L13 1L13 2L12 2L12 4L14 4L14 7L15 7L15 9L14 9L14 8L13 8L13 9L12 9L12 7L13 7L13 5L11 5L11 6L10 6L10 4L11 4L11 3L8 3L8 4L9 4L9 5L8 5L8 7L9 7L9 8L6 8L6 9L7 9L7 10L6 10L6 11L7 11L7 12L4 12L4 11L5 11L5 8L0 8L0 11L1 11L1 12L0 12L0 14L1 14L1 15L0 15L0 21L1 21L1 18L3 18L3 17L2 17L2 14L3 14L3 12L4 12L4 13L7 13L7 12L9 12L9 13L8 13L8 15L7 15L7 14L4 14L4 15L5 15L5 16L4 16L4 19L2 19L2 20L5 20L5 21L7 21L7 20L5 20L5 19L8 19L8 20L9 20L9 16L8 16L8 15L9 15L9 14L10 14L10 15L11 15L11 17L10 17L10 18L11 18L11 17L12 17L12 18L13 18L13 17L14 17L14 18L15 18L15 21L14 21L14 20L13 20L13 19L12 19L12 21L14 21L14 22L11 22L11 19L10 19L10 22L9 22L9 21L8 21L8 23L9 23L9 24L8 24L8 29L11 29L11 28L9 28L9 27L11 27L11 26L9 26L9 25L10 25L10 22L11 22L11 25L12 25L12 26L13 26L13 27L12 27L12 29L13 29L13 28L14 28L14 29L16 29L16 27L18 27L18 28L17 28L17 29L18 29L18 28L19 28L19 29L20 29L20 28L21 28L21 27L23 27L23 29L27 29L27 28L28 28L28 26L29 26L29 23L27 23L27 22L29 22L29 20L28 20L28 19L27 19L27 16L28 16L28 15L27 15L27 14L25 14L25 13L27 13L27 12L28 12L28 11L27 11L27 12L26 12L26 11L25 11L25 13L24 13L24 14L23 14L23 13L22 13L22 14L23 14L23 17L18 17L18 16L21 16L21 15L18 15L18 16L17 16L17 15L16 15L16 14L21 14L21 13L18 13L18 12L19 12L19 11L18 11L18 12L16 12L16 10L20 10L20 11L21 11L21 12L24 12L24 11L22 11L22 10L25 10L25 9L26 9L26 8L25 8L25 9L24 9L24 8L23 8L23 9L22 9L22 8L21 8L21 6L20 6L20 8L19 8L19 9L18 9L18 8L17 8L17 5L15 5L15 2L16 2L16 3L17 3L17 4L18 4L18 5L21 5L21 4L18 4L18 3L19 3L19 1L20 1L20 2L21 2L21 0L18 0L18 1L15 1L15 0ZM8 1L8 2L9 2L9 1ZM13 2L13 3L14 3L14 2ZM17 2L17 3L18 3L18 2ZM9 6L9 7L10 7L10 6ZM11 6L11 7L12 7L12 6ZM15 6L15 7L16 7L16 6ZM18 6L18 7L19 7L19 6ZM10 8L10 9L8 9L8 10L9 10L9 12L11 12L11 13L10 13L10 14L14 14L14 15L12 15L12 17L13 17L13 16L14 16L14 17L15 17L15 18L17 18L17 20L16 20L16 21L15 21L15 22L16 22L16 23L15 23L15 24L14 24L14 23L12 23L12 25L14 25L14 26L16 26L16 24L18 24L18 25L17 25L17 26L20 26L20 27L21 27L21 26L23 26L23 25L20 25L20 24L18 24L18 23L19 23L19 22L20 22L20 20L21 20L21 19L22 19L22 20L23 20L23 19L22 19L22 18L21 18L21 19L20 19L20 18L19 18L19 19L18 19L18 17L17 17L17 16L16 16L16 15L15 15L15 14L16 14L16 13L15 13L15 12L14 12L14 10L12 10L12 9L11 9L11 8ZM16 8L16 9L15 9L15 10L16 10L16 9L17 9L17 8ZM20 8L20 9L21 9L21 10L22 10L22 9L21 9L21 8ZM27 8L27 9L28 9L28 10L29 10L29 9L28 9L28 8ZM2 9L2 10L3 10L3 11L4 11L4 9ZM10 9L10 11L11 11L11 9ZM12 11L12 13L14 13L14 14L15 14L15 13L14 13L14 12L13 12L13 11ZM1 12L1 14L2 14L2 12ZM28 13L28 14L29 14L29 13ZM24 14L24 15L25 15L25 16L24 16L24 17L25 17L25 18L24 18L24 19L25 19L25 21L26 21L26 20L27 20L27 19L26 19L26 17L25 17L25 16L27 16L27 15L25 15L25 14ZM6 15L6 16L5 16L5 17L6 17L6 18L8 18L8 16L7 16L7 15ZM14 15L14 16L15 16L15 15ZM6 16L6 17L7 17L7 16ZM28 17L28 18L29 18L29 17ZM17 20L17 21L16 21L16 22L17 22L17 23L18 23L18 22L19 22L19 20ZM21 21L21 24L24 24L24 21ZM22 22L22 23L23 23L23 22ZM25 23L25 25L24 25L24 26L25 26L25 25L26 25L26 24L27 24L27 23ZM14 27L14 28L15 28L15 27ZM24 27L24 28L25 28L25 27ZM26 27L26 28L27 28L27 27ZM0 0L0 7L7 7L7 0ZM1 1L1 6L6 6L6 1ZM2 2L2 5L5 5L5 2ZM22 0L22 7L29 7L29 0ZM23 1L23 6L28 6L28 1ZM24 2L24 5L27 5L27 2ZM0 22L0 29L7 29L7 22ZM1 23L1 28L6 28L6 23ZM2 24L2 27L5 27L5 24Z" fill="#000000"/></g></g></svg>
