<?xml version="1.0" encoding="UTF-8"?>
<svg xmlns="http://www.w3.org/2000/svg" version="1.1" width="500" height="500" viewBox="0 0 500 500"><rect x="0" y="0" width="500" height="500" fill="#ffffff"/><g transform="scale(17.241)"><g transform="translate(0,0)"><path fill-rule="evenodd" d="M11 0L11 1L9 1L9 2L11 2L11 1L13 1L13 2L12 2L12 4L14 4L14 7L15 7L15 4L18 4L18 5L21 5L21 3L20 3L20 4L18 4L18 3L19 3L19 0L16 0L16 3L15 3L15 1L13 1L13 0ZM20 1L20 2L21 2L21 1ZM13 2L13 3L14 3L14 4L15 4L15 3L14 3L14 2ZM17 2L17 3L18 3L18 2ZM8 3L8 5L10 5L10 4L9 4L9 3ZM11 5L11 6L10 6L10 8L9 8L9 10L10 10L10 11L9 11L9 13L10 13L10 11L11 11L11 10L10 10L10 8L11 8L11 9L12 9L12 10L14 10L14 14L10 14L10 15L9 15L9 14L8 14L8 16L10 16L10 17L9 17L9 18L8 18L8 19L9 19L9 20L11 20L11 19L12 19L12 21L14 21L14 20L15 20L15 24L13 24L13 25L12 25L12 26L13 26L13 27L12 27L12 29L13 29L13 28L14 28L14 29L16 29L16 28L17 28L17 29L18 29L18 28L19 28L19 29L20 29L20 26L17 26L17 25L15 25L15 24L16 24L16 20L17 20L17 23L18 23L18 24L19 24L19 25L21 25L21 28L23 28L23 29L27 29L27 27L28 27L28 28L29 28L29 27L28 27L28 26L29 26L29 25L28 25L28 24L29 24L29 23L28 23L28 24L27 24L27 25L26 25L26 24L25 24L25 23L27 23L27 22L26 22L26 21L29 21L29 20L26 20L26 21L25 21L25 19L26 19L26 18L28 18L28 19L29 19L29 17L27 17L27 14L29 14L29 12L28 12L28 13L27 13L27 14L25 14L25 13L24 13L24 11L22 11L22 9L21 9L21 10L20 10L20 8L21 8L21 6L20 6L20 8L19 8L19 9L18 9L18 8L17 8L17 5L16 5L16 8L15 8L15 10L14 10L14 8L13 8L13 9L12 9L12 7L13 7L13 5ZM8 6L8 7L9 7L9 6ZM11 6L11 7L12 7L12 6ZM18 6L18 7L19 7L19 6ZM0 8L0 10L1 10L1 9L2 9L2 8ZM5 8L5 10L6 10L6 11L5 11L5 12L4 12L4 11L3 11L3 13L5 13L5 12L6 12L6 13L7 13L7 12L6 12L6 11L8 11L8 10L6 10L6 9L8 9L8 8ZM16 8L16 11L15 11L15 12L16 12L16 13L19 13L19 12L21 12L21 13L22 13L22 11L20 11L20 10L17 10L17 8ZM24 8L24 9L23 9L23 10L25 10L25 9L26 9L26 10L28 10L28 9L26 9L26 8ZM3 9L3 10L4 10L4 9ZM1 11L1 12L0 12L0 13L1 13L1 12L2 12L2 11ZM12 11L12 12L11 12L11 13L13 13L13 11ZM18 11L18 12L19 12L19 11ZM25 11L25 12L26 12L26 11ZM23 13L23 14L16 14L16 16L15 16L15 14L14 14L14 15L12 15L12 17L11 17L11 18L10 18L10 19L11 19L11 18L12 18L12 19L13 19L13 20L14 20L14 19L13 19L13 18L14 18L14 17L16 17L16 19L15 19L15 20L16 20L16 19L17 19L17 20L19 20L19 22L18 22L18 23L19 23L19 22L20 22L20 20L23 20L23 19L25 19L25 18L26 18L26 17L25 17L25 16L26 16L26 15L25 15L25 14L24 14L24 13ZM0 14L0 15L2 15L2 16L0 16L0 21L1 21L1 19L2 19L2 18L4 18L4 19L3 19L3 21L4 21L4 20L5 20L5 21L7 21L7 20L6 20L6 19L7 19L7 18L6 18L6 17L7 17L7 16L6 16L6 15L7 15L7 14L6 14L6 15L5 15L5 16L4 16L4 17L3 17L3 15L4 15L4 14ZM23 14L23 15L21 15L21 16L23 16L23 17L22 17L22 18L25 18L25 17L24 17L24 16L25 16L25 15L24 15L24 14ZM18 15L18 16L17 16L17 17L18 17L18 18L17 18L17 19L20 19L20 18L21 18L21 17L18 17L18 16L20 16L20 15ZM28 15L28 16L29 16L29 15ZM5 16L5 17L6 17L6 16ZM13 16L13 17L12 17L12 18L13 18L13 17L14 17L14 16ZM1 17L1 18L2 18L2 17ZM5 18L5 19L6 19L6 18ZM8 21L8 24L9 24L9 26L10 26L10 27L11 27L11 26L10 26L10 25L11 25L11 24L12 24L12 23L14 23L14 22L11 22L11 21L10 21L10 24L9 24L9 21ZM21 21L21 24L24 24L24 21ZM22 22L22 23L23 23L23 22ZM14 25L14 26L15 26L15 25ZM22 25L22 26L23 26L23 25ZM24 25L24 26L25 26L25 25ZM27 25L27 26L28 26L28 25ZM8 27L8 29L10 29L10 28L9 28L9 27ZM15 27L15 28L16 28L16 27ZM17 27L17 28L18 28L18 27ZM24 27L24 28L25 28L25 27ZM0 0L0 7L7 7L7 0ZM1 1L1 6L6 6L6 1ZM2 2L2 5L5 5L5 2ZM22 0L22 7L29 7L29 0ZM23 1L23 6L28 6L28 1ZM24 2L24 5L27 5L27 2ZM0 22L0 29L7 29L7 22ZM1 23L1 28L6 28L6 23ZM2 24L2 27L5 27L5 24Z" fill="#000000"/></g></g></svg>
