<?xml version="1.0" encoding="UTF-8"?>
<svg xmlns="http://www.w3.org/2000/svg" version="1.1" width="500" height="500" viewBox="0 0 500 500"><rect x="0" y="0" width="500" height="500" fill="#ffffff"/><g transform="scale(17.241)"><g transform="translate(0,0)"><path fill-rule="evenodd" d="M9 0L9 1L11 1L11 2L9 2L9 3L8 3L8 5L9 5L9 6L8 6L8 7L9 7L9 9L10 9L10 10L8 10L8 8L5 8L5 9L4 9L4 10L3 10L3 9L2 9L2 8L0 8L0 10L1 10L1 11L0 11L0 21L1 21L1 19L2 19L2 20L3 20L3 21L4 21L4 19L7 19L7 20L6 20L6 21L7 21L7 20L8 20L8 19L9 19L9 20L10 20L10 19L11 19L11 21L12 21L12 22L13 22L13 23L12 23L12 24L11 24L11 25L10 25L10 21L8 21L8 24L9 24L9 25L10 25L10 26L9 26L9 27L8 27L8 29L12 29L12 27L13 27L13 26L11 26L11 25L14 25L14 23L15 23L15 27L17 27L17 26L16 26L16 23L18 23L18 21L19 21L19 20L16 20L16 19L18 19L18 18L19 18L19 19L20 19L20 18L21 18L21 17L18 17L18 16L17 16L17 15L18 15L18 14L21 14L21 15L19 15L19 16L24 16L24 15L26 15L26 16L25 16L25 17L22 17L22 20L20 20L20 22L19 22L19 25L21 25L21 26L19 26L19 27L18 27L18 28L16 28L16 29L20 29L20 28L19 28L19 27L22 27L22 28L23 28L23 27L25 27L25 28L24 28L24 29L27 29L27 27L28 27L28 28L29 28L29 27L28 27L28 26L29 26L29 24L28 24L28 23L27 23L27 22L26 22L26 21L29 21L29 20L26 20L26 21L25 21L25 19L26 19L26 18L28 18L28 19L29 19L29 17L27 17L27 14L29 14L29 12L28 12L28 13L27 13L27 14L25 14L25 13L24 13L24 12L26 12L26 11L25 11L25 9L26 9L26 10L28 10L28 9L26 9L26 8L24 8L24 9L23 9L23 12L22 12L22 14L21 14L21 10L22 10L22 9L21 9L21 10L20 10L20 8L21 8L21 6L20 6L20 8L19 8L19 6L18 6L18 5L21 5L21 2L20 2L20 3L17 3L17 2L16 2L16 0L13 0L13 1L12 1L12 0ZM17 0L17 1L18 1L18 2L19 2L19 0ZM13 1L13 2L12 2L12 4L11 4L11 7L10 7L10 6L9 6L9 7L10 7L10 8L11 8L11 10L10 10L10 11L9 11L9 12L10 12L10 11L11 11L11 10L13 10L13 11L12 11L12 12L11 12L11 14L9 14L9 15L10 15L10 16L8 16L8 17L5 17L5 16L4 16L4 17L3 17L3 16L2 16L2 15L4 15L4 14L2 14L2 15L1 15L1 18L8 18L8 17L9 17L9 19L10 19L10 18L11 18L11 19L12 19L12 21L14 21L14 22L15 22L15 20L14 20L14 19L12 19L12 18L15 18L15 17L14 17L14 16L13 16L13 17L12 17L12 15L13 15L13 14L12 14L12 13L13 13L13 12L14 12L14 11L17 11L17 13L16 13L16 12L15 12L15 14L16 14L16 15L15 15L15 16L16 16L16 15L17 15L17 13L19 13L19 12L20 12L20 10L19 10L19 11L17 11L17 10L18 10L18 9L19 9L19 8L18 8L18 6L17 6L17 7L16 7L16 5L17 5L17 3L16 3L16 2L15 2L15 1ZM14 2L14 4L12 4L12 5L13 5L13 6L12 6L12 9L13 9L13 8L14 8L14 10L15 10L15 9L16 9L16 8L14 8L14 7L15 7L15 5L16 5L16 3L15 3L15 2ZM9 3L9 5L10 5L10 3ZM13 6L13 7L14 7L14 6ZM17 8L17 9L18 9L18 8ZM1 9L1 10L2 10L2 12L1 12L1 13L2 13L2 12L3 12L3 13L5 13L5 12L7 12L7 13L6 13L6 14L7 14L7 15L6 15L6 16L7 16L7 15L8 15L8 14L7 14L7 13L8 13L8 12L7 12L7 11L6 11L6 10L7 10L7 9L6 9L6 10L5 10L5 11L4 11L4 12L3 12L3 10L2 10L2 9ZM22 14L22 15L24 15L24 14ZM28 15L28 16L29 16L29 15ZM16 17L16 18L17 18L17 17ZM25 17L25 18L26 18L26 17ZM23 18L23 19L24 19L24 18ZM21 21L21 24L24 24L24 21ZM22 22L22 23L23 23L23 22ZM25 23L25 24L26 24L26 25L27 25L27 26L28 26L28 25L27 25L27 23ZM22 25L22 26L23 26L23 25ZM24 25L24 26L25 26L25 25ZM9 27L9 28L11 28L11 27ZM0 0L0 7L7 7L7 0ZM1 1L1 6L6 6L6 1ZM2 2L2 5L5 5L5 2ZM22 0L22 7L29 7L29 0ZM23 1L23 6L28 6L28 1ZM24 2L24 5L27 5L27 2ZM0 22L0 29L7 29L7 22ZM1 23L1 28L6 28L6 23ZM2 24L2 27L5 27L5 24Z" fill="#000000"/></g></g></svg>
