<?xml version="1.0" encoding="UTF-8"?>
<svg xmlns="http://www.w3.org/2000/svg" version="1.1" width="500" height="500" viewBox="0 0 500 500"><rect x="0" y="0" width="500" height="500" fill="#ffffff"/><g transform="scale(17.241)"><g transform="translate(0,0)"><path fill-rule="evenodd" d="M8 0L8 1L11 1L11 3L10 3L10 2L9 2L9 3L10 3L10 5L9 5L9 6L8 6L8 8L9 8L9 9L7 9L7 8L6 8L6 9L7 9L7 10L6 10L6 11L7 11L7 10L8 10L8 12L4 12L4 11L5 11L5 8L3 8L3 9L2 9L2 8L0 8L0 9L1 9L1 10L0 10L0 11L1 11L1 10L2 10L2 13L7 13L7 14L5 14L5 15L4 15L4 14L0 14L0 16L2 16L2 15L4 15L4 16L3 16L3 17L0 17L0 21L2 21L2 20L3 20L3 19L5 19L5 21L8 21L8 22L9 22L9 21L8 21L8 20L9 20L9 18L8 18L8 19L7 19L7 18L6 18L6 17L7 17L7 16L6 16L6 15L7 15L7 14L9 14L9 13L10 13L10 14L11 14L11 12L9 12L9 11L10 11L10 10L11 10L11 9L10 9L10 7L11 7L11 6L12 6L12 9L14 9L14 12L13 12L13 13L12 13L12 14L13 14L13 13L15 13L15 14L14 14L14 15L12 15L12 16L11 16L11 15L8 15L8 16L10 16L10 18L12 18L12 19L11 19L11 21L12 21L12 22L10 22L10 24L8 24L8 26L9 26L9 27L8 27L8 29L10 29L10 28L9 28L9 27L10 27L10 26L11 26L11 28L12 28L12 27L14 27L14 26L15 26L15 28L14 28L14 29L15 29L15 28L16 28L16 26L17 26L17 27L19 27L19 29L21 29L21 28L24 28L24 29L26 29L26 28L27 28L27 27L28 27L28 28L29 28L29 23L27 23L27 24L28 24L28 26L26 26L26 27L25 27L25 26L24 26L24 25L26 25L26 24L25 24L25 23L26 23L26 21L28 21L28 20L27 20L27 19L26 19L26 18L28 18L28 19L29 19L29 18L28 18L28 17L26 17L26 16L27 16L27 14L28 14L28 16L29 16L29 11L28 11L28 13L24 13L24 12L22 12L22 13L21 13L21 12L19 12L19 11L18 11L18 10L20 10L20 9L18 9L18 8L17 8L17 9L16 9L16 7L17 7L17 6L18 6L18 7L19 7L19 8L20 8L20 7L21 7L21 6L20 6L20 7L19 7L19 6L18 6L18 5L20 5L20 4L21 4L21 3L20 3L20 1L19 1L19 0L16 0L16 1L17 1L17 2L16 2L16 3L17 3L17 6L16 6L16 7L15 7L15 3L14 3L14 0L13 0L13 1L12 1L12 0ZM12 2L12 4L14 4L14 3L13 3L13 2ZM17 2L17 3L18 3L18 4L20 4L20 3L18 3L18 2ZM10 5L10 6L9 6L9 7L10 7L10 6L11 6L11 5ZM12 5L12 6L13 6L13 8L14 8L14 6L13 6L13 5ZM22 8L22 9L21 9L21 11L22 11L22 9L23 9L23 11L24 11L24 10L25 10L25 9L23 9L23 8ZM28 8L28 9L26 9L26 11L25 11L25 12L26 12L26 11L27 11L27 10L28 10L28 9L29 9L29 8ZM3 9L3 11L4 11L4 9ZM9 9L9 10L10 10L10 9ZM12 10L12 11L13 11L13 10ZM15 11L15 13L16 13L16 14L17 14L17 15L15 15L15 16L13 16L13 17L12 17L12 18L15 18L15 16L17 16L17 17L16 17L16 19L17 19L17 20L15 20L15 19L14 19L14 25L16 25L16 24L17 24L17 26L18 26L18 25L19 25L19 24L17 24L17 23L19 23L19 22L20 22L20 21L19 21L19 22L17 22L17 23L15 23L15 21L17 21L17 20L19 20L19 19L17 19L17 17L20 17L20 16L21 16L21 18L20 18L20 19L21 19L21 20L23 20L23 19L25 19L25 18L26 18L26 17L25 17L25 16L26 16L26 14L24 14L24 13L23 13L23 14L24 14L24 15L25 15L25 16L21 16L21 15L22 15L22 14L21 14L21 13L19 13L19 12L17 12L17 11ZM17 13L17 14L19 14L19 15L18 15L18 16L20 16L20 14L19 14L19 13ZM4 16L4 17L3 17L3 18L5 18L5 17L6 17L6 16ZM24 17L24 18L25 18L25 17ZM6 19L6 20L7 20L7 19ZM12 19L12 21L13 21L13 19ZM21 21L21 24L24 24L24 21ZM12 22L12 23L13 23L13 22ZM22 22L22 23L23 23L23 22ZM9 25L9 26L10 26L10 25ZM11 25L11 26L13 26L13 25ZM22 25L22 27L23 27L23 25ZM19 26L19 27L20 27L20 28L21 28L21 26ZM24 27L24 28L25 28L25 27ZM0 0L0 7L7 7L7 0ZM1 1L1 6L6 6L6 1ZM2 2L2 5L5 5L5 2ZM22 0L22 7L29 7L29 0ZM23 1L23 6L28 6L28 1ZM24 2L24 5L27 5L27 2ZM0 22L0 29L7 29L7 22ZM1 23L1 28L6 28L6 23ZM2 24L2 27L5 27L5 24Z" fill="#000000"/></g></g></svg>
