<?xml version="1.0" encoding="UTF-8"?>
<svg xmlns="http://www.w3.org/2000/svg" version="1.1" width="500" height="500" viewBox="0 0 500 500"><rect x="0" y="0" width="500" height="500" fill="#ffffff"/><g transform="scale(17.241)"><g transform="translate(0,0)"><path fill-rule="evenodd" d="M9 0L9 1L8 1L8 3L9 3L9 4L8 4L8 8L6 8L6 9L8 9L8 10L9 10L9 11L8 11L8 12L6 12L6 11L7 11L7 10L6 10L6 11L5 11L5 9L4 9L4 8L3 8L3 9L2 9L2 8L0 8L0 9L2 9L2 10L1 10L1 11L2 11L2 12L3 12L3 13L2 13L2 14L0 14L0 16L1 16L1 17L2 17L2 16L3 16L3 17L4 17L4 18L2 18L2 19L4 19L4 20L3 20L3 21L5 21L5 18L6 18L6 19L7 19L7 20L6 20L6 21L8 21L8 23L10 23L10 24L9 24L9 25L8 25L8 26L9 26L9 27L8 27L8 29L10 29L10 28L12 28L12 29L14 29L14 28L12 28L12 24L14 24L14 25L13 25L13 27L15 27L15 28L16 28L16 27L15 27L15 26L14 26L14 25L16 25L16 24L14 24L14 22L15 22L15 21L14 21L14 20L16 20L16 22L17 22L17 23L18 23L18 22L17 22L17 20L18 20L18 21L19 21L19 22L20 22L20 25L22 25L22 26L23 26L23 25L24 25L24 28L23 28L23 29L25 29L25 27L27 27L27 29L28 29L28 27L29 27L29 26L28 26L28 25L25 25L25 24L29 24L29 23L28 23L28 22L29 22L29 21L27 21L27 20L29 20L29 17L28 17L28 15L29 15L29 14L25 14L25 16L26 16L26 15L27 15L27 17L28 17L28 18L27 18L27 20L26 20L26 22L27 22L27 23L25 23L25 20L23 20L23 19L24 19L24 16L23 16L23 17L22 17L22 16L21 16L21 15L23 15L23 14L24 14L24 13L23 13L23 12L25 12L25 13L26 13L26 12L27 12L27 13L29 13L29 12L28 12L28 10L29 10L29 9L28 9L28 8L26 8L26 9L25 9L25 8L22 8L22 10L23 10L23 9L25 9L25 11L20 11L20 10L21 10L21 9L20 9L20 8L21 8L21 5L19 5L19 4L20 4L20 3L19 3L19 2L17 2L17 3L18 3L18 7L17 7L17 5L16 5L16 4L15 4L15 3L16 3L16 1L17 1L17 0L15 0L15 1L14 1L14 0L12 0L12 1L11 1L11 2L9 2L9 1L10 1L10 0ZM18 0L18 1L20 1L20 2L21 2L21 1L20 1L20 0ZM13 2L13 3L12 3L12 4L9 4L9 5L10 5L10 6L9 6L9 7L10 7L10 8L8 8L8 9L9 9L9 10L10 10L10 8L11 8L11 9L12 9L12 10L11 10L11 11L9 11L9 12L8 12L8 13L9 13L9 14L7 14L7 13L6 13L6 12L5 12L5 11L4 11L4 9L3 9L3 12L4 12L4 13L6 13L6 14L3 14L3 16L5 16L5 15L6 15L6 16L8 16L8 17L6 17L6 18L7 18L7 19L8 19L8 21L9 21L9 22L10 22L10 23L11 23L11 21L10 21L10 20L11 20L11 19L12 19L12 20L14 20L14 19L16 19L16 20L17 20L17 19L18 19L18 18L19 18L19 21L20 21L20 20L21 20L21 17L19 17L19 16L20 16L20 15L21 15L21 14L23 14L23 13L21 13L21 14L19 14L19 13L20 13L20 12L19 12L19 10L20 10L20 9L19 9L19 8L20 8L20 6L19 6L19 8L17 8L17 7L16 7L16 6L15 6L15 4L14 4L14 2ZM13 4L13 6L12 6L12 5L11 5L11 6L10 6L10 7L11 7L11 6L12 6L12 8L13 8L13 9L14 9L14 10L13 10L13 12L12 12L12 13L10 13L10 14L9 14L9 16L10 16L10 17L8 17L8 19L9 19L9 18L11 18L11 17L12 17L12 16L14 16L14 17L13 17L13 18L14 18L14 17L16 17L16 16L17 16L17 17L18 17L18 14L16 14L16 16L14 16L14 15L15 15L15 12L16 12L16 11L15 11L15 12L14 12L14 10L15 10L15 9L14 9L14 8L13 8L13 6L14 6L14 7L15 7L15 8L16 8L16 10L17 10L17 8L16 8L16 7L15 7L15 6L14 6L14 4ZM26 9L26 10L28 10L28 9ZM25 11L25 12L26 12L26 11ZM0 12L0 13L1 13L1 12ZM17 12L17 13L18 13L18 12ZM13 13L13 15L14 15L14 13ZM6 14L6 15L7 15L7 14ZM11 14L11 16L12 16L12 14ZM1 15L1 16L2 16L2 15ZM25 17L25 18L26 18L26 17ZM0 18L0 19L1 19L1 18ZM22 18L22 19L23 19L23 18ZM0 20L0 21L1 21L1 20ZM21 21L21 24L24 24L24 21ZM22 22L22 23L23 23L23 22ZM10 24L10 27L9 27L9 28L10 28L10 27L11 27L11 24ZM17 24L17 26L18 26L18 27L17 27L17 29L18 29L18 27L20 27L20 29L22 29L22 28L21 28L21 27L20 27L20 26L19 26L19 25L18 25L18 24ZM27 26L27 27L28 27L28 26ZM0 0L0 7L7 7L7 0ZM1 1L1 6L6 6L6 1ZM2 2L2 5L5 5L5 2ZM22 0L22 7L29 7L29 0ZM23 1L23 6L28 6L28 1ZM24 2L24 5L27 5L27 2ZM0 22L0 29L7 29L7 22ZM1 23L1 28L6 28L6 23ZM2 24L2 27L5 27L5 24Z" fill="#000000"/></g></g></svg>
