<?xml version="1.0" encoding="utf-8"?>
<!-- Generator: Adobe Illustrator 28.0.0, SVG Export Plug-In . SVG Version: 6.00 Build 0)  -->
<svg version="1.1" id="Layer_1" xmlns="http://www.w3.org/2000/svg" xmlns:xlink="http://www.w3.org/1999/xlink" x="0px" y="0px"
	 viewBox="0 0 1745 536" style="enable-background:new 0 0 1745 536;" xml:space="preserve">
<style type="text/css">
	.st0{fill:#F2F2F2;}
</style>
<g>
	<path class="st0" d="M683.27,192.26c0,4.44-0.49,7.66-1.32,10.36c-5.6,19.63-19.64,30.44-39.16,30.44c-3.15,0-7.5-0.49-12.75-1.54
		c-16.69-2.91-31.15-4.38-41.24-4.38c-28.53,0-51.98,6.42-68.86,19.08c-15.94,11.95-25.89,27.67-25.89,48.04v192.16
		c0,14-2.12,25.27-10.01,33.48c-8.04,8.35-16.96,12.59-31.59,12.59c-14.02,0-22.74-4.01-30.92-11.89
		c-8.36-8.03-10.67-19.53-10.67-34.17V192.26c0-14.1,1.91-25.42,10.14-33.65c8.23-8.24,19.04-12.41,33.14-12.41
		c23.33,0,37.85,10.66,43.15,29.81c9.7-7.61,20-14.1,31.69-19.42c20.94-9.52,43.37-14.34,67.09-14.34
		c25.67,0,45.45,3.95,60.71,12.08C678.86,166.1,683.27,181.45,683.27,192.26z"/>
	<path class="st0" d="M363.17,239.99c-17.1-29.74-39.63-53.5-68.93-70.62c-29.35-17.13-62.47-25.82-98.44-25.82
		c-35.95,0-69.27,8.67-99.02,25.77c-29.8,17.13-53.47,40.93-70.37,70.73C9.55,269.8,1,303.31,1,339.67
		c0,36.24,7.93,69.64,23.57,99.27c15.73,29.83,37.69,53.56,65.29,70.54c27.65,17.02,58.87,25.64,92.78,25.64
		c27.31,0,53.14-5.75,76.77-17.09c13.65-6.55,26.21-14.68,37.57-24.29c1.38,10.1,5.71,18.82,12.92,26.02
		c8.86,8.88,20.08,13.39,33.32,13.39c13.22,0,23.44-4.51,32.33-13.4c8.89-8.89,12.4-20.1,12.4-33.33V339.67
		C387.94,303.29,380.27,269.76,363.17,239.99z M285.57,396.25c-9.05,16.71-21.16,29.5-37.02,39.09
		c-15.59,9.44-33.34,14.22-52.75,14.22c-19.68,0-36.94-4.65-52.74-14.22c-15.71-9.5-28.29-22.69-37.41-39.2
		c-9.18-16.58-13.83-35.58-13.83-56.48c0-20.92,4.66-40.05,13.85-56.86c9.12-16.7,21.7-29.98,37.38-39.47
		c15.82-9.57,33.08-14.22,52.74-14.22c19.39,0,37.14,4.79,52.75,14.23c15.84,9.59,27.94,22.47,37,39.37
		c9.01,16.85,13.58,36.02,13.58,56.96C299.12,360.6,294.56,379.64,285.57,396.25z"/>
	<path class="st0" d="M786.67,159.27c8.67,8.68,15.22,20,15.22,33.65v292.85c0,13.14-8.29,24.3-16.86,33.17
		c-8.69,9-23.83,13.56-37.57,13.56c-13.24,0-26.16-4.51-35.03-13.39c-8.89-8.88-18.7-20.1-18.7-33.34V192.91
		c0-13.75,9.76-25.12,18.76-33.82c8.87-8.57,26.4-12.91,39.54-12.91C765.68,146.19,777.97,150.59,786.67,159.27z"/>
	<g>
		<path class="st0" d="M744.29,0.75c-15.41,0-28.83,5.61-39.91,16.69c-11.07,11.07-16.69,24.5-16.69,39.91
			c0,15.41,5.62,28.84,16.69,39.91c11.07,11.07,24.5,16.69,39.91,16.69c15.41,0,28.84-5.61,39.91-16.69
			c11.07-11.08,16.69-24.5,16.69-39.91c0-15.41-5.61-28.83-16.69-39.91C773.12,6.37,759.69,0.75,744.29,0.75z"/>
	</g>
	<path class="st0" d="M1170.98,365.34c8.24-7.93,12.59-19.06,12.59-30.9c0-36.53-7.1-69.82-21.09-98.29
		c-14.23-28.92-34.94-51.85-61.58-68.02c-26.57-16.12-58.31-24.43-94.36-24.43c-36.38,0-69.49,8.38-98.38,25.05
		c-28.99,16.74-51.92,40.34-68.17,70.23c-16.13,29.69-24.3,63.56-24.3,100.7c0,37.3,8.68,71.17,25.8,100.7
		c17.17,29.64,41.35,53.11,71.88,69.77c30.33,16.57,65,24.97,103.04,24.97c21.54,0,44.32-4,67.71-11.88
		c23.42-7.88,43.43-18.32,59.46-31.02c10.23-7.74,15.64-18.17,15.64-30.16c0-8.48-2.85-20.94-16.38-32.32
		c-7.29-6.5-16.83-9.8-28.37-9.8c-11.28,0-21.29,3.36-29.76,9.98c-8.02,6.1-18.58,11.39-31.38,15.72
		c-12.82,4.34-25.24,6.55-36.91,6.55c-30.49,0-55.43-6.91-76.22-23.94c-16.7-13.67-27.84-41.33-33.78-49.65h233.73
		C1152.4,378.62,1162.77,373.24,1170.98,365.34z M907.36,303.74c5.83-24.96,15.69-38.31,29.89-50.79
		c17.64-15.51,40.31-24.76,69.29-24.76c25.61,0,45.64,9.96,61.23,25.15c12.85,12.54,21.51,25.44,26.27,50.4H907.36z"/>
	<path class="st0" d="M1702.6,184.57c25.73,27.42,39.4,65.65,39.4,113.64v188.22c0,13.14-6.28,24.3-14.84,33.16
		c-8.69,9-21.57,13.56-35.32,13.56c-13.24,0-24.63-4.51-33.5-13.39c-8.89-8.88-16.18-20.1-16.18-33.33V298.21
		c0-23.1-3.45-40.5-14.3-51.72c-10.9-11.25-21.97-16.73-40.8-16.73c-19.17,0-36.2,6.38-48.4,19.5
		c-12.46,13.38-21.29,30.25-21.29,51.58v185.58c0,13.14-1.99,24.3-10.55,33.16c-8.69,9-17.77,13.56-31.51,13.56
		c-13.24,0-21.9-4.51-30.77-13.39c-8.9-8.88-10.36-20.1-10.36-33.33V298.21c0-23.1-9.38-40.5-20.24-51.72
		c-10.9-11.25-28.22-16.73-47.04-16.73c-19.62,0-34.24,6.38-46.44,19.5c-12.46,13.38-19.39,30.25-19.39,51.58v185.58
		c0,13.14-5.09,24.3-13.65,33.16c-8.69,9-19.28,13.56-33.02,13.56c-13.24,0-26.57-4.51-35.43-13.39
		c-8.89-8.88-17.73-20.1-17.73-33.33V193.57c0-13.75,8.12-25.12,17.11-33.82c8.87-8.57,24.02-12.91,37.16-12.91
		c13.12,0,23.94,4.23,32.61,12.57c3.05,2.94,5.5,6.21,7.56,9.77c8.8-6.29,18.43-11.58,28.9-15.8c17.31-6.96,36.2-10.49,56.22-10.49
		c24.34,0,46.59,5.02,66.15,14.91c14.79,7.49,27.71,17.49,38.58,29.83c12.29-12.12,26.7-22.07,43.01-29.69
		c21.41-9.99,45.85-15.05,71.81-15.05C1642.11,142.9,1676.64,156.92,1702.6,184.57z"/>
</g>
</svg>
