<?xml version="1.0" encoding="utf-8"?>
<!-- Generator: Adobe Illustrator 27.1.1, SVG Export Plug-In . SVG Version: 6.00 Build 0)  -->
<svg version="1.1" id="final_copia" xmlns="http://www.w3.org/2000/svg" xmlns:xlink="http://www.w3.org/1999/xlink" x="0px"
	 y="0px" viewBox="0 0 529.24 166.01" style="enable-background:new 0 0 529.24 166.01;" xml:space="preserve">
<style type="text/css">
	.st0{fill:#F7F6F6;}
</style>
<g>
	<path class="st0" d="M46.76,158.25c-0.46-0.31-0.96-0.55-1.51-0.74s-1.1-0.33-1.65-0.44c-0.55-0.11-1.06-0.21-1.52-0.3
		c-0.46-0.09-0.83-0.21-1.11-0.35c-0.28-0.14-0.42-0.33-0.42-0.57c0-0.16,0.06-0.31,0.17-0.44c0.11-0.13,0.3-0.24,0.57-0.32
		s0.63-0.12,1.08-0.12c0.61,0,1.24,0.09,1.89,0.26c0.65,0.17,1.32,0.43,2.01,0.78l1.42-3.42c-0.73-0.41-1.56-0.72-2.48-0.92
		c-0.92-0.2-1.85-0.3-2.8-0.3c-1.44,0-2.64,0.21-3.61,0.64s-1.69,1-2.18,1.71c-0.49,0.71-0.73,1.5-0.73,2.37
		c0,0.75,0.14,1.37,0.42,1.87c0.28,0.5,0.65,0.9,1.11,1.21s0.97,0.55,1.52,0.74c0.55,0.19,1.1,0.34,1.65,0.45s1.05,0.22,1.51,0.32
		c0.46,0.1,0.83,0.22,1.11,0.37s0.42,0.35,0.42,0.6c0,0.16-0.06,0.3-0.18,0.41s-0.31,0.2-0.57,0.26c-0.26,0.06-0.62,0.09-1.07,0.09
		c-0.77,0-1.57-0.12-2.39-0.35s-1.56-0.54-2.23-0.93l-1.52,3.44c0.71,0.43,1.61,0.77,2.7,1.04c1.09,0.27,2.23,0.4,3.4,0.4
		c1.45,0,2.66-0.22,3.62-0.65c0.96-0.43,1.68-1.01,2.17-1.72c0.49-0.71,0.73-1.5,0.73-2.35c0-0.73-0.14-1.35-0.42-1.84
		C47.59,158.96,47.22,158.56,46.76,158.25z"/>
	<path class="st0" d="M62.09,153.44c-0.71-0.66-1.54-1.17-2.5-1.53c-0.96-0.36-2.01-0.54-3.16-0.54c-1.13,0-2.18,0.18-3.15,0.54
		c-0.97,0.36-1.8,0.87-2.51,1.53c-0.71,0.66-1.26,1.43-1.65,2.32c-0.39,0.89-0.59,1.86-0.59,2.93c0,1.05,0.2,2.03,0.59,2.92
		c0.39,0.89,0.94,1.67,1.65,2.33c0.71,0.66,1.54,1.17,2.51,1.53c0.97,0.36,2.02,0.54,3.17,0.54c1.13,0,2.18-0.18,3.14-0.54
		c0.96-0.36,1.79-0.87,2.5-1.53s1.26-1.44,1.65-2.33c0.39-0.89,0.59-1.87,0.59-2.92c0-1.07-0.2-2.04-0.59-2.93
		C63.35,154.88,62.8,154.1,62.09,153.44z M59.33,160.16c-0.16,0.43-0.38,0.8-0.67,1.1c-0.29,0.3-0.62,0.53-1,0.69
		s-0.79,0.24-1.23,0.24c-0.44,0-0.85-0.08-1.23-0.24s-0.71-0.39-1-0.69c-0.29-0.3-0.51-0.67-0.67-1.1
		c-0.16-0.43-0.24-0.92-0.24-1.47s0.08-1.04,0.24-1.47s0.38-0.8,0.67-1.1c0.29-0.3,0.62-0.53,1-0.69s0.79-0.24,1.23-0.24
		c0.44,0,0.85,0.08,1.23,0.24s0.71,0.39,1,0.69c0.29,0.3,0.51,0.67,0.67,1.1s0.24,0.92,0.24,1.47S59.5,159.73,59.33,160.16z"/>
	<polygon class="st0" points="70.17,151.69 65.46,151.69 65.46,165.69 76.5,165.69 76.5,162.03 70.17,162.03 	"/>
	<path class="st0" d="M85.97,159.25c0,1.07-0.19,1.82-0.57,2.27c-0.38,0.45-0.9,0.67-1.57,0.67c-0.65,0-1.17-0.22-1.56-0.67
		c-0.39-0.45-0.58-1.2-0.58-2.27v-7.56h-4.72v7.7c0,2.09,0.6,3.72,1.8,4.88s2.87,1.74,5.02,1.74s3.82-0.58,5.02-1.74
		s1.8-2.79,1.8-4.88v-7.7h-4.64V159.25z"/>
	<path class="st0" d="M97.28,156.13c0.29-0.31,0.63-0.54,1.03-0.7s0.85-0.24,1.34-0.24c0.63,0,1.19,0.14,1.69,0.43
		c0.5,0.29,0.96,0.69,1.37,1.21l2.98-2.66c-0.69-0.91-1.57-1.6-2.63-2.08c-1.06-0.48-2.28-0.72-3.65-0.72
		c-1.12,0-2.16,0.18-3.11,0.53c-0.95,0.35-1.78,0.86-2.48,1.51s-1.24,1.43-1.63,2.32s-0.58,1.88-0.58,2.96s0.19,2.07,0.58,2.96
		s0.93,1.67,1.63,2.32s1.53,1.16,2.48,1.51c0.95,0.35,1.99,0.53,3.11,0.53c1.37,0,2.59-0.24,3.65-0.73s1.94-1.18,2.63-2.07
		l-2.98-2.66c-0.41,0.52-0.87,0.92-1.37,1.21c-0.5,0.29-1.06,0.43-1.69,0.43c-0.49,0-0.94-0.08-1.34-0.24s-0.74-0.39-1.03-0.7
		c-0.29-0.31-0.51-0.68-0.67-1.11s-0.24-0.92-0.24-1.45s0.08-1.02,0.24-1.45C96.77,156.81,97,156.44,97.28,156.13z"/>
	<rect x="106.45" y="151.69" class="st0" width="4.72" height="14"/>
	<path class="st0" d="M125.85,153.44c-0.71-0.66-1.54-1.17-2.5-1.53c-0.96-0.36-2.01-0.54-3.16-0.54c-1.13,0-2.18,0.18-3.15,0.54
		c-0.97,0.36-1.8,0.87-2.51,1.53c-0.71,0.66-1.26,1.43-1.65,2.32s-0.59,1.86-0.59,2.93c0,1.05,0.2,2.03,0.59,2.92
		c0.39,0.89,0.94,1.67,1.65,2.33c0.71,0.66,1.54,1.17,2.51,1.53c0.97,0.36,2.02,0.54,3.17,0.54c1.13,0,2.18-0.18,3.14-0.54
		c0.96-0.36,1.79-0.87,2.5-1.53c0.71-0.66,1.26-1.44,1.65-2.33c0.39-0.89,0.59-1.87,0.59-2.92c0-1.07-0.2-2.04-0.59-2.93
		S126.56,154.1,125.85,153.44z M123.09,160.16c-0.16,0.43-0.38,0.8-0.67,1.1c-0.29,0.3-0.62,0.53-1,0.69s-0.79,0.24-1.23,0.24
		c-0.44,0-0.85-0.08-1.23-0.24s-0.71-0.39-1-0.69c-0.29-0.3-0.51-0.67-0.67-1.1c-0.16-0.43-0.24-0.92-0.24-1.47s0.08-1.04,0.24-1.47
		s0.38-0.8,0.67-1.1c0.29-0.3,0.62-0.53,1-0.69s0.79-0.24,1.23-0.24c0.44,0,0.85,0.08,1.23,0.24s0.71,0.39,1,0.69
		c0.29,0.3,0.51,0.67,0.67,1.1c0.16,0.43,0.24,0.92,0.24,1.47S123.25,159.73,123.09,160.16z"/>
	<polygon class="st0" points="138.41,158.06 133.09,151.69 129.21,151.69 129.21,165.69 133.81,165.69 133.81,159.33 139.13,165.69 
		143.01,165.69 143.01,151.69 138.41,151.69 	"/>
	<polygon class="st0" points="149.33,160.29 155.25,160.29 155.25,156.89 149.33,156.89 149.33,155.25 156.07,155.25 156.07,151.69 
		144.69,151.69 144.69,165.69 156.33,165.69 156.33,162.13 149.33,162.13 	"/>
	<path class="st0" d="M167.76,158.25c-0.46-0.31-0.96-0.55-1.51-0.74s-1.1-0.33-1.65-0.44c-0.55-0.11-1.06-0.21-1.52-0.3
		c-0.46-0.09-0.83-0.21-1.11-0.35c-0.28-0.14-0.42-0.33-0.42-0.57c0-0.16,0.06-0.31,0.17-0.44c0.11-0.13,0.3-0.24,0.57-0.32
		s0.63-0.12,1.08-0.12c0.61,0,1.24,0.09,1.89,0.26c0.65,0.17,1.32,0.43,2.01,0.78l1.42-3.42c-0.73-0.41-1.56-0.72-2.48-0.92
		c-0.92-0.2-1.85-0.3-2.8-0.3c-1.44,0-2.64,0.21-3.61,0.64c-0.97,0.43-1.69,1-2.18,1.71c-0.49,0.71-0.73,1.5-0.73,2.37
		c0,0.75,0.14,1.37,0.42,1.87s0.65,0.9,1.11,1.21c0.46,0.31,0.97,0.55,1.52,0.74c0.55,0.19,1.1,0.34,1.65,0.45
		c0.55,0.11,1.05,0.22,1.51,0.32c0.46,0.1,0.83,0.22,1.11,0.37c0.28,0.15,0.42,0.35,0.42,0.6c0,0.16-0.06,0.3-0.18,0.41
		s-0.31,0.2-0.57,0.26c-0.26,0.06-0.62,0.09-1.07,0.09c-0.77,0-1.57-0.12-2.39-0.35c-0.82-0.23-1.56-0.54-2.23-0.93l-1.52,3.44
		c0.71,0.43,1.61,0.77,2.7,1.04c1.09,0.27,2.23,0.4,3.4,0.4c1.45,0,2.66-0.22,3.62-0.65c0.96-0.43,1.68-1.01,2.17-1.72
		s0.73-1.5,0.73-2.35c0-0.73-0.14-1.35-0.42-1.84C168.59,158.96,168.22,158.56,167.76,158.25z"/>
	<polygon class="st0" points="174.43,155.35 178.53,155.35 178.53,165.69 183.25,165.69 183.25,155.35 187.35,155.35 187.35,151.69 
		174.43,151.69 	"/>
	<polygon class="st0" points="192.61,160.29 198.53,160.29 198.53,156.89 192.61,156.89 192.61,155.25 199.35,155.25 199.35,151.69 
		187.97,151.69 187.97,165.69 199.61,165.69 199.61,162.13 192.61,162.13 	"/>
	<path class="st0" d="M205.94,156.13c0.29-0.31,0.63-0.54,1.03-0.7c0.4-0.16,0.85-0.24,1.34-0.24c0.63,0,1.19,0.14,1.69,0.43
		c0.5,0.29,0.96,0.69,1.37,1.21l2.98-2.66c-0.69-0.91-1.57-1.6-2.63-2.08c-1.06-0.48-2.28-0.72-3.65-0.72
		c-1.12,0-2.16,0.18-3.11,0.53s-1.78,0.86-2.48,1.51s-1.24,1.43-1.63,2.32s-0.58,1.88-0.58,2.96s0.19,2.07,0.58,2.96
		s0.93,1.67,1.63,2.32s1.53,1.16,2.48,1.51s1.99,0.53,3.11,0.53c1.37,0,2.59-0.24,3.65-0.73c1.06-0.49,1.94-1.18,2.63-2.07
		l-2.98-2.66c-0.41,0.52-0.87,0.92-1.37,1.21c-0.5,0.29-1.06,0.43-1.69,0.43c-0.49,0-0.94-0.08-1.34-0.24
		c-0.4-0.16-0.74-0.39-1.03-0.7c-0.29-0.31-0.51-0.68-0.67-1.11s-0.24-0.92-0.24-1.45s0.08-1.02,0.24-1.45
		C205.43,156.81,205.66,156.44,205.94,156.13z"/>
	<polygon class="st0" points="224.31,158.06 218.99,151.69 215.11,151.69 215.11,165.69 219.71,165.69 219.71,159.33 225.03,165.69 
		228.91,165.69 228.91,151.69 224.31,151.69 	"/>
	<path class="st0" d="M243.59,153.44c-0.71-0.66-1.54-1.17-2.5-1.53c-0.96-0.36-2.01-0.54-3.16-0.54c-1.13,0-2.18,0.18-3.15,0.54
		c-0.97,0.36-1.8,0.87-2.51,1.53c-0.71,0.66-1.26,1.43-1.65,2.32s-0.59,1.86-0.59,2.93c0,1.05,0.2,2.03,0.59,2.92
		c0.39,0.89,0.94,1.67,1.65,2.33c0.71,0.66,1.54,1.17,2.51,1.53c0.97,0.36,2.02,0.54,3.17,0.54c1.13,0,2.18-0.18,3.14-0.54
		c0.96-0.36,1.79-0.87,2.5-1.53c0.71-0.66,1.26-1.44,1.65-2.33c0.39-0.89,0.59-1.87,0.59-2.92c0-1.07-0.2-2.04-0.59-2.93
		S244.3,154.1,243.59,153.44z M240.83,160.16c-0.16,0.43-0.38,0.8-0.67,1.1c-0.29,0.3-0.62,0.53-1,0.69s-0.79,0.24-1.23,0.24
		c-0.44,0-0.85-0.08-1.23-0.24s-0.71-0.39-1-0.69c-0.29-0.3-0.51-0.67-0.67-1.1c-0.16-0.43-0.24-0.92-0.24-1.47s0.08-1.04,0.24-1.47
		s0.38-0.8,0.67-1.1c0.29-0.3,0.62-0.53,1-0.69s0.79-0.24,1.23-0.24c0.44,0,0.85,0.08,1.23,0.24s0.71,0.39,1,0.69
		c0.29,0.3,0.51,0.67,0.67,1.1s0.24,0.92,0.24,1.47S240.99,159.73,240.83,160.16z"/>
	<polygon class="st0" points="251.67,151.69 246.95,151.69 246.95,165.69 257.99,165.69 257.99,162.03 251.67,162.03 	"/>
	<path class="st0" d="M271.49,153.44c-0.71-0.66-1.54-1.17-2.5-1.53c-0.96-0.36-2.01-0.54-3.16-0.54c-1.13,0-2.18,0.18-3.15,0.54
		c-0.97,0.36-1.8,0.87-2.51,1.53c-0.71,0.66-1.26,1.43-1.65,2.32s-0.59,1.86-0.59,2.93c0,1.05,0.2,2.03,0.59,2.92
		c0.39,0.89,0.94,1.67,1.65,2.33c0.71,0.66,1.54,1.17,2.51,1.53c0.97,0.36,2.02,0.54,3.17,0.54c1.13,0,2.18-0.18,3.14-0.54
		c0.96-0.36,1.79-0.87,2.5-1.53c0.71-0.66,1.26-1.44,1.65-2.33c0.39-0.89,0.59-1.87,0.59-2.92c0-1.07-0.2-2.04-0.59-2.93
		S272.2,154.1,271.49,153.44z M268.73,160.16c-0.16,0.43-0.38,0.8-0.67,1.1c-0.29,0.3-0.62,0.53-1,0.69s-0.79,0.24-1.23,0.24
		c-0.44,0-0.85-0.08-1.23-0.24s-0.71-0.39-1-0.69c-0.29-0.3-0.51-0.67-0.67-1.1c-0.16-0.43-0.24-0.92-0.24-1.47s0.08-1.04,0.24-1.47
		s0.38-0.8,0.67-1.1c0.29-0.3,0.62-0.53,1-0.69s0.79-0.24,1.23-0.24c0.44,0,0.85,0.08,1.23,0.24s0.71,0.39,1,0.69
		c0.29,0.3,0.51,0.67,0.67,1.1s0.24,0.92,0.24,1.47S268.89,159.73,268.73,160.16z"/>
	<polygon class="st0" points="270.67,147.35 266.37,147.35 263.73,150.55 266.73,150.55 	"/>
	<path class="st0" d="M279.97,156.13c0.29-0.31,0.65-0.54,1.07-0.7s0.89-0.24,1.41-0.24c0.63,0,1.2,0.13,1.71,0.39
		c0.51,0.26,0.99,0.64,1.43,1.15l3.02-2.66c-0.71-0.87-1.6-1.53-2.69-2s-2.32-0.7-3.71-0.7c-1.16,0-2.22,0.18-3.19,0.53
		s-1.8,0.86-2.51,1.51s-1.25,1.43-1.64,2.32s-0.58,1.88-0.58,2.96s0.19,2.07,0.58,2.96s0.93,1.67,1.63,2.32s1.53,1.16,2.48,1.51
		s2,0.53,3.13,0.53c1.03,0,2.09-0.15,3.18-0.46c1.09-0.31,2.07-0.75,2.92-1.32v-5.92h-4.1v3.54c-0.05,0.02-0.11,0.06-0.16,0.08
		c-0.51,0.18-1.03,0.27-1.56,0.27c-0.51,0-0.96-0.08-1.37-0.25c-0.41-0.17-0.76-0.4-1.05-0.71s-0.52-0.68-0.68-1.11
		c-0.16-0.43-0.24-0.91-0.24-1.43c0-0.55,0.08-1.03,0.24-1.46S279.68,156.44,279.97,156.13z"/>
	<rect x="289.63" y="151.69" class="st0" width="4.72" height="14"/>
	<path class="st0" d="M309.55,163.21l-2.98-2.66c-0.41,0.52-0.87,0.92-1.37,1.21c-0.5,0.29-1.06,0.43-1.69,0.43
		c-0.49,0-0.94-0.08-1.34-0.24c-0.4-0.16-0.74-0.39-1.03-0.7c-0.29-0.31-0.51-0.68-0.67-1.11s-0.24-0.92-0.24-1.45
		s0.08-1.02,0.24-1.45c0.16-0.43,0.38-0.8,0.67-1.11c0.29-0.31,0.63-0.54,1.03-0.7c0.4-0.16,0.85-0.24,1.34-0.24
		c0.63,0,1.19,0.14,1.69,0.43c0.5,0.29,0.96,0.69,1.37,1.21l2.98-2.66c-0.69-0.91-1.57-1.6-2.63-2.08
		c-1.06-0.48-2.28-0.72-3.65-0.72c-1.12,0-2.16,0.18-3.11,0.53s-1.78,0.86-2.48,1.51s-1.24,1.43-1.63,2.32s-0.58,1.88-0.58,2.96
		s0.19,2.07,0.58,2.96s0.93,1.67,1.63,2.32s1.53,1.16,2.48,1.51s1.99,0.53,3.11,0.53c1.37,0,2.59-0.24,3.65-0.73
		C307.98,164.8,308.86,164.11,309.55,163.21z"/>
	<path class="st0" d="M335.84,158.25c-0.46-0.31-0.96-0.55-1.51-0.74s-1.1-0.33-1.65-0.44c-0.55-0.11-1.06-0.21-1.52-0.3
		c-0.46-0.09-0.83-0.21-1.11-0.35c-0.28-0.14-0.42-0.33-0.42-0.57c0-0.16,0.06-0.31,0.17-0.44c0.11-0.13,0.3-0.24,0.57-0.32
		s0.63-0.12,1.08-0.12c0.61,0,1.24,0.09,1.89,0.26c0.65,0.17,1.32,0.43,2.01,0.78l1.42-3.42c-0.73-0.41-1.56-0.72-2.48-0.92
		c-0.92-0.2-1.85-0.3-2.8-0.3c-1.44,0-2.64,0.21-3.61,0.64s-1.69,1-2.18,1.71c-0.49,0.71-0.73,1.5-0.73,2.37
		c0,0.75,0.14,1.37,0.42,1.87c0.28,0.5,0.65,0.9,1.11,1.21s0.97,0.55,1.52,0.74c0.55,0.19,1.1,0.34,1.65,0.45s1.05,0.22,1.51,0.32
		c0.46,0.1,0.83,0.22,1.11,0.37s0.42,0.35,0.42,0.6c0,0.16-0.06,0.3-0.18,0.41s-0.31,0.2-0.57,0.26c-0.26,0.06-0.62,0.09-1.07,0.09
		c-0.77,0-1.57-0.12-2.39-0.35c-0.82-0.23-1.56-0.54-2.23-0.93l-1.4,3.18l-5.52-12.62h-4.64l-6.12,14h4.8l0.94-2.44h5.32l0.94,2.44
		h4.88l-0.42-0.96c0.66,0.35,1.45,0.65,2.4,0.88c1.09,0.27,2.23,0.4,3.4,0.4c1.45,0,2.66-0.22,3.62-0.65
		c0.96-0.43,1.68-1.01,2.17-1.72c0.49-0.71,0.73-1.5,0.73-2.35c0-0.73-0.14-1.35-0.42-1.84
		C336.67,158.96,336.3,158.56,335.84,158.25z M315.64,159.85l1.36-3.53l1.36,3.53H315.64z"/>
	<path class="st0" d="M348.17,151.69l-6.12,14h4.8l0.94-2.44h5.32l0.94,2.44h4.88l-6.12-14H348.17z M349.1,159.85l1.36-3.53
		l1.36,3.53H349.1z"/>
	<polygon class="st0" points="363.43,155.35 367.53,155.35 367.53,165.69 372.25,165.69 372.25,155.35 376.35,155.35 376.35,151.69 
		363.43,151.69 	"/>
	<path class="st0" d="M385.65,159.25c0,1.07-0.19,1.82-0.57,2.27c-0.38,0.45-0.9,0.67-1.57,0.67c-0.65,0-1.17-0.22-1.56-0.67
		c-0.39-0.45-0.58-1.2-0.58-2.27v-7.56h-4.72v7.7c0,2.09,0.6,3.72,1.8,4.88c1.2,1.16,2.87,1.74,5.02,1.74s3.82-0.58,5.02-1.74
		c1.2-1.16,1.8-2.79,1.8-4.88v-7.7h-4.64V159.25z"/>
	<path class="st0" d="M407.46,158.25c-0.46-0.31-0.96-0.55-1.51-0.74s-1.1-0.33-1.65-0.44c-0.55-0.11-1.06-0.21-1.52-0.3
		c-0.46-0.09-0.83-0.21-1.11-0.35c-0.28-0.14-0.42-0.33-0.42-0.57c0-0.16,0.06-0.31,0.17-0.44c0.11-0.13,0.3-0.24,0.57-0.32
		s0.63-0.12,1.08-0.12c0.61,0,1.24,0.09,1.89,0.26c0.65,0.17,1.32,0.43,2.01,0.78l1.42-3.42c-0.73-0.41-1.56-0.72-2.48-0.92
		c-0.92-0.2-1.85-0.3-2.8-0.3c-1.44,0-2.64,0.21-3.61,0.64s-1.69,1-2.18,1.71c-0.49,0.71-0.73,1.5-0.73,2.37
		c0,0.75,0.14,1.37,0.42,1.87c0.28,0.5,0.65,0.9,1.11,1.21s0.97,0.55,1.52,0.74c0.55,0.19,1.1,0.34,1.65,0.45s1.05,0.22,1.51,0.32
		c0.46,0.1,0.83,0.22,1.11,0.37s0.42,0.35,0.42,0.6c0,0.16-0.06,0.3-0.18,0.41s-0.31,0.2-0.57,0.26c-0.26,0.06-0.62,0.09-1.07,0.09
		c-0.77,0-1.57-0.12-2.39-0.35c-0.82-0.23-1.56-0.54-2.23-0.93l-1.52,3.44c0.71,0.43,1.61,0.77,2.7,1.04c1.09,0.27,2.23,0.4,3.4,0.4
		c1.45,0,2.66-0.22,3.62-0.65c0.96-0.43,1.68-1.01,2.17-1.72c0.49-0.71,0.73-1.5,0.73-2.35c0-0.73-0.14-1.35-0.42-1.84
		C408.29,158.96,407.92,158.56,407.46,158.25z"/>
	<polygon class="st0" points="414.43,160.29 420.35,160.29 420.35,156.89 414.43,156.89 414.43,155.25 421.17,155.25 421.17,151.69 
		409.79,151.69 409.79,165.69 421.43,165.69 421.43,162.13 414.43,162.13 	"/>
	<path class="st0" d="M434.99,159.76c0.52-0.78,0.78-1.71,0.78-2.79s-0.26-2.02-0.78-2.81c-0.52-0.79-1.26-1.4-2.21-1.83
		c-0.95-0.43-2.08-0.64-3.39-0.64h-6.74v14h4.72v-3.52h1.29l2.37,3.52h5.04l-2.94-4.32C433.91,160.98,434.54,160.44,434.99,159.76z
		 M430.54,155.77c0.31,0.29,0.47,0.69,0.47,1.2s-0.16,0.91-0.47,1.2c-0.31,0.29-0.8,0.44-1.45,0.44h-1.72v-3.28h1.72
		C429.74,155.33,430.23,155.48,430.54,155.77z"/>
	<polygon class="st0" points="451.77,151.69 447.27,151.69 443.84,159.86 440.51,151.69 435.43,151.69 441.35,165.69 445.99,165.69 
		451.77,152.03 451.77,165.69 456.49,165.69 456.49,151.69 451.91,151.69 	"/>
	<path class="st0" d="M463.28,156.13c0.29-0.31,0.63-0.54,1.03-0.7c0.4-0.16,0.85-0.24,1.34-0.24c0.63,0,1.19,0.14,1.69,0.43
		c0.5,0.29,0.96,0.69,1.37,1.21l2.98-2.66c-0.69-0.91-1.57-1.6-2.63-2.08c-1.06-0.48-2.28-0.72-3.65-0.72
		c-1.12,0-2.16,0.18-3.11,0.53s-1.78,0.86-2.48,1.51s-1.24,1.43-1.63,2.32s-0.58,1.88-0.58,2.96s0.19,2.07,0.58,2.96
		s0.93,1.67,1.63,2.32s1.53,1.16,2.48,1.51s1.99,0.53,3.11,0.53c1.37,0,2.59-0.24,3.65-0.73c1.06-0.49,1.94-1.18,2.63-2.07
		l-2.98-2.66c-0.41,0.52-0.87,0.92-1.37,1.21c-0.5,0.29-1.06,0.43-1.69,0.43c-0.49,0-0.94-0.08-1.34-0.24
		c-0.4-0.16-0.74-0.39-1.03-0.7c-0.29-0.31-0.51-0.68-0.67-1.11s-0.24-0.92-0.24-1.45s0.08-1.02,0.24-1.45
		C462.77,156.81,462.99,156.44,463.28,156.13z"/>
	<rect x="472.45" y="151.69" class="st0" width="4.72" height="14"/>
	<path class="st0" d="M493.5,155.76c-0.39-0.89-0.94-1.66-1.65-2.32c-0.71-0.66-1.54-1.17-2.5-1.53c-0.96-0.36-2.01-0.54-3.16-0.54
		c-1.13,0-2.18,0.18-3.15,0.54c-0.97,0.36-1.8,0.87-2.51,1.53c-0.71,0.66-1.26,1.43-1.65,2.32s-0.59,1.86-0.59,2.93
		c0,1.05,0.2,2.03,0.59,2.92c0.39,0.89,0.94,1.67,1.65,2.33c0.71,0.66,1.54,1.17,2.51,1.53c0.97,0.36,2.02,0.54,3.17,0.54
		c1.13,0,2.18-0.18,3.14-0.54c0.96-0.36,1.79-0.87,2.5-1.53c0.71-0.66,1.26-1.44,1.65-2.33c0.39-0.89,0.59-1.87,0.59-2.92
		C494.09,157.63,493.89,156.65,493.5,155.76z M489.09,160.16c-0.16,0.43-0.38,0.8-0.67,1.1c-0.29,0.3-0.62,0.53-1,0.69
		s-0.79,0.24-1.23,0.24c-0.44,0-0.85-0.08-1.23-0.24s-0.71-0.39-1-0.69c-0.29-0.3-0.51-0.67-0.67-1.1
		c-0.16-0.43-0.24-0.92-0.24-1.47s0.08-1.04,0.24-1.47s0.38-0.8,0.67-1.1c0.29-0.3,0.62-0.53,1-0.69s0.79-0.24,1.23-0.24
		c0.44,0,0.85,0.08,1.23,0.24s0.71,0.39,1,0.69c0.29,0.3,0.51,0.67,0.67,1.1s0.24,0.92,0.24,1.47S489.25,159.73,489.09,160.16z"/>
</g>
<g>
	<path class="st0" d="M187.71,105.88l21.24-61l29.99,61l30.76-25.72l-18.41-44.24h-0.04L236.76,1.05l-57.92,0
		c-0.34,0-24,63.46-39.4,104.83h-8.37l-10.96-21.39v-1.58c0-0.17,0.29-0.7,0.88-1.58c0.58-0.88,1.63-2.38,3.13-4.49
		c1.5-2.11,3.55-5.1,6.14-8.98c2.59-3.87,5.97-8.98,10.15-15.32c1.67-2.46,2.63-5.76,2.88-9.9c0.25-4.13,0.38-7.96,0.38-11.49V8.97
		c-0.34-1.41-1.34-2.9-3.01-4.49c-1.67-1.58-3.34-2.73-5.01-3.43H31.14h-5.09L2.06,35.66v70.45l25.18,34.62h3.89h18.3V35.9h43.36
		c0.83,0,1.42,0.44,1.75,1.32c0.33,0.88,0.5,1.94,0.5,3.17c-4.01,5.99-8.06,11.97-12.16,17.96c-4.1,5.99-8.98,12.15-14.66,18.49
		c-1.67,2.29-2.51,4.14-2.51,5.54c0,0.88,0.16,1.81,0.5,2.77c0.33,0.97,0.92,2.16,1.75,3.57l30.83,52.02h2.45h45.62h2.05l0,0h26.63
		l12.09-34.73l26.23,34.73h45.99l-20.95-34.86H187.71z"/>
	<polygon class="st0" points="441.99,105.88 441.99,87.66 495.14,87.66 503.91,54.12 441.99,54.12 441.99,35.9 527.7,35.9 
		503.55,1.05 394.62,1.05 394.62,35.91 394.62,105.88 311.82,105.88 394.28,35.9 360.57,1.05 246.76,1.05 261.24,35.92 332.62,35.9 
		248.93,105.88 269.88,140.74 394.62,140.74 412.78,140.74 502.35,140.74 527.7,105.88 451.1,105.88 	"/>
</g>
</svg>
